%TF.GenerationSoftware,KiCad,Pcbnew,8.0.7*%
%TF.CreationDate,2025-01-07T01:26:18+09:00*%
%TF.ProjectId,Simple_LED,53696d70-6c65-45f4-9c45-442e6b696361,rev?*%
%TF.SameCoordinates,Original*%
%TF.FileFunction,Legend,Bot*%
%TF.FilePolarity,Positive*%
%FSLAX46Y46*%
G04 Gerber Fmt 4.6, Leading zero omitted, Abs format (unit mm)*
G04 Created by KiCad (PCBNEW 8.0.7) date 2025-01-07 01:26:18*
%MOMM*%
%LPD*%
G01*
G04 APERTURE LIST*
%ADD10C,0.150000*%
%ADD11C,0.120000*%
G04 APERTURE END LIST*
D10*
X176905714Y-76499979D02*
X176762857Y-76547598D01*
X176762857Y-76547598D02*
X176715238Y-76595217D01*
X176715238Y-76595217D02*
X176667619Y-76690455D01*
X176667619Y-76690455D02*
X176667619Y-76833312D01*
X176667619Y-76833312D02*
X176715238Y-76928550D01*
X176715238Y-76928550D02*
X176762857Y-76976170D01*
X176762857Y-76976170D02*
X176858095Y-77023789D01*
X176858095Y-77023789D02*
X177239047Y-77023789D01*
X177239047Y-77023789D02*
X177239047Y-76023789D01*
X177239047Y-76023789D02*
X176905714Y-76023789D01*
X176905714Y-76023789D02*
X176810476Y-76071408D01*
X176810476Y-76071408D02*
X176762857Y-76119027D01*
X176762857Y-76119027D02*
X176715238Y-76214265D01*
X176715238Y-76214265D02*
X176715238Y-76309503D01*
X176715238Y-76309503D02*
X176762857Y-76404741D01*
X176762857Y-76404741D02*
X176810476Y-76452360D01*
X176810476Y-76452360D02*
X176905714Y-76499979D01*
X176905714Y-76499979D02*
X177239047Y-76499979D01*
X176381904Y-76023789D02*
X175810476Y-76023789D01*
X176096190Y-77023789D02*
X176096190Y-76023789D01*
X174953333Y-77023789D02*
X175524761Y-77023789D01*
X175239047Y-77023789D02*
X175239047Y-76023789D01*
X175239047Y-76023789D02*
X175334285Y-76166646D01*
X175334285Y-76166646D02*
X175429523Y-76261884D01*
X175429523Y-76261884D02*
X175524761Y-76309503D01*
D11*
%TO.C,BT1*%
X186812000Y-65338970D02*
X190430000Y-65338970D01*
X190430000Y-65338970D02*
X190430000Y-67048970D01*
X190430000Y-72558970D02*
X190430000Y-70848970D01*
X190430000Y-72558970D02*
X186812000Y-72558970D01*
X168272700Y-60838970D02*
X183967300Y-60838970D01*
X183967300Y-77058970D02*
X179980000Y-77058970D01*
X179980000Y-77058970D02*
X177780000Y-74858970D01*
X177780000Y-74858970D02*
X174460000Y-74858970D01*
X172260000Y-77058970D02*
X174460000Y-74858970D01*
X172260000Y-77058970D02*
X168272700Y-77058970D01*
X161810000Y-65338970D02*
X165428000Y-65338970D01*
X161810000Y-65338970D02*
X161810000Y-67048970D01*
X161810000Y-72558970D02*
X161810000Y-70848970D01*
X165428000Y-72558970D02*
X161810000Y-72558970D01*
X183965371Y-60837181D02*
G75*
G02*
X186811999Y-65338970I-7845391J-8111799D01*
G01*
X186812000Y-72558970D02*
G75*
G02*
X183965371Y-77060759I-10691995J3609996D01*
G01*
X165428000Y-65338970D02*
G75*
G02*
X168274629Y-60837181I10692000J-3610000D01*
G01*
X168274629Y-77060759D02*
G75*
G02*
X165428000Y-72558970I7845391J8111801D01*
G01*
%TD*%
M02*
