%TF.GenerationSoftware,KiCad,Pcbnew,8.0.7*%
%TF.CreationDate,2025-01-07T01:26:18+09:00*%
%TF.ProjectId,Simple_LED,53696d70-6c65-45f4-9c45-442e6b696361,rev?*%
%TF.SameCoordinates,Original*%
%TF.FileFunction,Copper,L2,Bot*%
%TF.FilePolarity,Positive*%
%FSLAX46Y46*%
G04 Gerber Fmt 4.6, Leading zero omitted, Abs format (unit mm)*
G04 Created by KiCad (PCBNEW 8.0.7) date 2025-01-07 01:26:18*
%MOMM*%
%LPD*%
G01*
G04 APERTURE LIST*
%TA.AperFunction,Conductor*%
%ADD10C,0.200000*%
%TD*%
%TA.AperFunction,ComponentPad*%
%ADD11C,1.600000*%
%TD*%
%TA.AperFunction,ComponentPad*%
%ADD12O,1.600000X1.600000*%
%TD*%
%TA.AperFunction,ComponentPad*%
%ADD13R,1.800000X1.800000*%
%TD*%
%TA.AperFunction,ComponentPad*%
%ADD14C,1.800000*%
%TD*%
%TA.AperFunction,SMDPad,CuDef*%
%ADD15R,2.540000X3.510000*%
%TD*%
%TA.AperFunction,ViaPad*%
%ADD16C,0.600000*%
%TD*%
G04 APERTURE END LIST*
D10*
%TO.N,VCC*%
X191000000Y-69000000D02*
X191000000Y-81000000D01*
%TD*%
D11*
%TO.P,R1,1*%
%TO.N,VCC*%
X190700000Y-91500000D03*
D12*
%TO.P,R1,2*%
%TO.N,/led*%
X178000000Y-91500000D03*
%TD*%
D13*
%TO.P,D1,1,K*%
%TO.N,GND*%
X161500000Y-88960000D03*
D14*
%TO.P,D1,2,A*%
%TO.N,/led*%
X161500000Y-91500000D03*
%TD*%
D15*
%TO.P,BT1,1,+*%
%TO.N,VCC*%
X190800000Y-68948970D03*
%TO.P,BT1,2,-*%
%TO.N,GND*%
X161440000Y-68948970D03*
%TD*%
D16*
%TO.N,VCC*%
X191000000Y-81000000D03*
%TD*%
D10*
%TO.N,GND*%
X161440000Y-88900000D02*
X161500000Y-88960000D01*
X161440000Y-68948970D02*
X161440000Y-88900000D01*
%TD*%
%TA.AperFunction,Conductor*%
%TO.N,GND*%
G36*
X199442539Y-50520185D02*
G01*
X199488294Y-50572989D01*
X199499500Y-50624500D01*
X199499500Y-99375500D01*
X199479815Y-99442539D01*
X199427011Y-99488294D01*
X199375500Y-99499500D01*
X150624500Y-99499500D01*
X150557461Y-99479815D01*
X150511706Y-99427011D01*
X150500500Y-99375500D01*
X150500500Y-91499993D01*
X160094700Y-91499993D01*
X160094700Y-91500006D01*
X160113864Y-91731297D01*
X160113866Y-91731308D01*
X160170842Y-91956300D01*
X160264075Y-92168848D01*
X160391016Y-92363147D01*
X160391019Y-92363151D01*
X160391021Y-92363153D01*
X160548216Y-92533913D01*
X160548219Y-92533915D01*
X160548222Y-92533918D01*
X160731365Y-92676464D01*
X160731371Y-92676468D01*
X160731374Y-92676470D01*
X160935497Y-92786936D01*
X160989479Y-92805468D01*
X161155015Y-92862297D01*
X161155017Y-92862297D01*
X161155019Y-92862298D01*
X161383951Y-92900500D01*
X161383952Y-92900500D01*
X161616048Y-92900500D01*
X161616049Y-92900500D01*
X161844981Y-92862298D01*
X162064503Y-92786936D01*
X162268626Y-92676470D01*
X162451784Y-92533913D01*
X162608979Y-92363153D01*
X162735924Y-92168849D01*
X162829157Y-91956300D01*
X162886134Y-91731305D01*
X162886516Y-91726697D01*
X162905300Y-91500006D01*
X162905300Y-91499998D01*
X176694532Y-91499998D01*
X176694532Y-91500001D01*
X176714364Y-91726686D01*
X176714366Y-91726697D01*
X176773258Y-91946488D01*
X176773261Y-91946497D01*
X176869431Y-92152732D01*
X176869432Y-92152734D01*
X176999954Y-92339141D01*
X177160858Y-92500045D01*
X177160861Y-92500047D01*
X177347266Y-92630568D01*
X177553504Y-92726739D01*
X177773308Y-92785635D01*
X177935230Y-92799801D01*
X177999998Y-92805468D01*
X178000000Y-92805468D01*
X178000002Y-92805468D01*
X178056673Y-92800509D01*
X178226692Y-92785635D01*
X178446496Y-92726739D01*
X178652734Y-92630568D01*
X178839139Y-92500047D01*
X179000047Y-92339139D01*
X179130568Y-92152734D01*
X179226739Y-91946496D01*
X179285635Y-91726692D01*
X179302634Y-91532384D01*
X179305468Y-91500001D01*
X179305468Y-91499998D01*
X189394532Y-91499998D01*
X189394532Y-91500001D01*
X189414364Y-91726686D01*
X189414366Y-91726697D01*
X189473258Y-91946488D01*
X189473261Y-91946497D01*
X189569431Y-92152732D01*
X189569432Y-92152734D01*
X189699954Y-92339141D01*
X189860858Y-92500045D01*
X189860861Y-92500047D01*
X190047266Y-92630568D01*
X190253504Y-92726739D01*
X190473308Y-92785635D01*
X190635230Y-92799801D01*
X190699998Y-92805468D01*
X190700000Y-92805468D01*
X190700002Y-92805468D01*
X190756673Y-92800509D01*
X190926692Y-92785635D01*
X191146496Y-92726739D01*
X191352734Y-92630568D01*
X191539139Y-92500047D01*
X191700047Y-92339139D01*
X191830568Y-92152734D01*
X191926739Y-91946496D01*
X191985635Y-91726692D01*
X192002634Y-91532384D01*
X192005468Y-91500001D01*
X192005468Y-91499998D01*
X191985635Y-91273313D01*
X191985635Y-91273308D01*
X191926739Y-91053504D01*
X191830568Y-90847266D01*
X191700047Y-90660861D01*
X191700045Y-90660858D01*
X191539141Y-90499954D01*
X191352734Y-90369432D01*
X191352732Y-90369431D01*
X191146497Y-90273261D01*
X191146488Y-90273258D01*
X190926697Y-90214366D01*
X190926693Y-90214365D01*
X190926692Y-90214365D01*
X190926691Y-90214364D01*
X190926686Y-90214364D01*
X190700002Y-90194532D01*
X190699998Y-90194532D01*
X190473313Y-90214364D01*
X190473302Y-90214366D01*
X190253511Y-90273258D01*
X190253502Y-90273261D01*
X190047267Y-90369431D01*
X190047265Y-90369432D01*
X189860858Y-90499954D01*
X189699954Y-90660858D01*
X189569432Y-90847265D01*
X189569431Y-90847267D01*
X189473261Y-91053502D01*
X189473258Y-91053511D01*
X189414366Y-91273302D01*
X189414364Y-91273313D01*
X189394532Y-91499998D01*
X179305468Y-91499998D01*
X179285635Y-91273313D01*
X179285635Y-91273308D01*
X179226739Y-91053504D01*
X179130568Y-90847266D01*
X179000047Y-90660861D01*
X179000045Y-90660858D01*
X178839141Y-90499954D01*
X178652734Y-90369432D01*
X178652732Y-90369431D01*
X178446497Y-90273261D01*
X178446488Y-90273258D01*
X178226697Y-90214366D01*
X178226693Y-90214365D01*
X178226692Y-90214365D01*
X178226691Y-90214364D01*
X178226686Y-90214364D01*
X178000002Y-90194532D01*
X177999998Y-90194532D01*
X177773313Y-90214364D01*
X177773302Y-90214366D01*
X177553511Y-90273258D01*
X177553502Y-90273261D01*
X177347267Y-90369431D01*
X177347265Y-90369432D01*
X177160858Y-90499954D01*
X176999954Y-90660858D01*
X176869432Y-90847265D01*
X176869431Y-90847267D01*
X176773261Y-91053502D01*
X176773258Y-91053511D01*
X176714366Y-91273302D01*
X176714364Y-91273313D01*
X176694532Y-91499998D01*
X162905300Y-91499998D01*
X162905300Y-91499993D01*
X162886135Y-91268702D01*
X162886133Y-91268691D01*
X162829157Y-91043699D01*
X162735924Y-90831151D01*
X162608981Y-90636849D01*
X162513832Y-90533489D01*
X162482910Y-90470835D01*
X162490770Y-90401409D01*
X162534918Y-90347253D01*
X162561730Y-90333325D01*
X162642084Y-90303355D01*
X162642093Y-90303350D01*
X162757187Y-90217190D01*
X162757190Y-90217187D01*
X162843350Y-90102093D01*
X162843354Y-90102086D01*
X162893596Y-89967379D01*
X162893598Y-89967372D01*
X162899999Y-89907844D01*
X162900000Y-89907827D01*
X162900000Y-89210000D01*
X161875278Y-89210000D01*
X161919333Y-89133694D01*
X161950000Y-89019244D01*
X161950000Y-88900756D01*
X161919333Y-88786306D01*
X161875278Y-88710000D01*
X162900000Y-88710000D01*
X162900000Y-88012172D01*
X162899999Y-88012155D01*
X162893598Y-87952627D01*
X162893596Y-87952620D01*
X162843354Y-87817913D01*
X162843350Y-87817906D01*
X162757190Y-87702812D01*
X162757187Y-87702809D01*
X162642093Y-87616649D01*
X162642086Y-87616645D01*
X162507379Y-87566403D01*
X162507372Y-87566401D01*
X162447844Y-87560000D01*
X161750000Y-87560000D01*
X161750000Y-88584722D01*
X161673694Y-88540667D01*
X161559244Y-88510000D01*
X161440756Y-88510000D01*
X161326306Y-88540667D01*
X161250000Y-88584722D01*
X161250000Y-87560000D01*
X160552155Y-87560000D01*
X160492627Y-87566401D01*
X160492620Y-87566403D01*
X160357913Y-87616645D01*
X160357906Y-87616649D01*
X160242812Y-87702809D01*
X160242809Y-87702812D01*
X160156649Y-87817906D01*
X160156645Y-87817913D01*
X160106403Y-87952620D01*
X160106401Y-87952627D01*
X160100000Y-88012155D01*
X160100000Y-88710000D01*
X161124722Y-88710000D01*
X161080667Y-88786306D01*
X161050000Y-88900756D01*
X161050000Y-89019244D01*
X161080667Y-89133694D01*
X161124722Y-89210000D01*
X160100000Y-89210000D01*
X160100000Y-89907844D01*
X160106401Y-89967372D01*
X160106403Y-89967379D01*
X160156645Y-90102086D01*
X160156649Y-90102093D01*
X160242809Y-90217187D01*
X160242812Y-90217190D01*
X160357906Y-90303350D01*
X160357913Y-90303354D01*
X160438270Y-90333325D01*
X160494204Y-90375196D01*
X160518621Y-90440660D01*
X160503770Y-90508933D01*
X160486168Y-90533489D01*
X160391021Y-90636847D01*
X160391019Y-90636848D01*
X160391016Y-90636853D01*
X160264075Y-90831151D01*
X160170842Y-91043699D01*
X160113866Y-91268691D01*
X160113864Y-91268702D01*
X160094700Y-91499993D01*
X150500500Y-91499993D01*
X150500500Y-70751814D01*
X159670000Y-70751814D01*
X159676401Y-70811342D01*
X159676403Y-70811349D01*
X159726645Y-70946056D01*
X159726649Y-70946063D01*
X159812809Y-71061157D01*
X159812812Y-71061160D01*
X159927906Y-71147320D01*
X159927913Y-71147324D01*
X160062620Y-71197566D01*
X160062627Y-71197568D01*
X160122155Y-71203969D01*
X160122172Y-71203970D01*
X161190000Y-71203970D01*
X161690000Y-71203970D01*
X162757828Y-71203970D01*
X162757844Y-71203969D01*
X162817372Y-71197568D01*
X162817379Y-71197566D01*
X162952086Y-71147324D01*
X162952093Y-71147320D01*
X163067187Y-71061160D01*
X163067190Y-71061157D01*
X163153350Y-70946063D01*
X163153354Y-70946056D01*
X163203596Y-70811349D01*
X163203598Y-70811342D01*
X163209999Y-70751814D01*
X163210000Y-70751797D01*
X163210000Y-69198970D01*
X161690000Y-69198970D01*
X161690000Y-71203970D01*
X161190000Y-71203970D01*
X161190000Y-69198970D01*
X159670000Y-69198970D01*
X159670000Y-70751814D01*
X150500500Y-70751814D01*
X150500500Y-67146125D01*
X159670000Y-67146125D01*
X159670000Y-68698970D01*
X161190000Y-68698970D01*
X161690000Y-68698970D01*
X163210000Y-68698970D01*
X163210000Y-67146142D01*
X163209999Y-67146125D01*
X163209997Y-67146105D01*
X189029500Y-67146105D01*
X189029500Y-70751840D01*
X189029501Y-70751846D01*
X189035908Y-70811453D01*
X189086202Y-70946298D01*
X189086206Y-70946305D01*
X189172452Y-71061514D01*
X189172455Y-71061517D01*
X189287664Y-71147763D01*
X189287671Y-71147767D01*
X189422517Y-71198061D01*
X189422516Y-71198061D01*
X189429444Y-71198805D01*
X189482127Y-71204470D01*
X190275500Y-71204469D01*
X190342539Y-71224153D01*
X190388294Y-71276957D01*
X190399500Y-71328469D01*
X190399500Y-80417587D01*
X190379815Y-80484626D01*
X190372450Y-80494896D01*
X190370186Y-80497734D01*
X190274211Y-80650476D01*
X190214631Y-80820745D01*
X190214630Y-80820750D01*
X190194435Y-80999996D01*
X190194435Y-81000003D01*
X190214630Y-81179249D01*
X190214631Y-81179254D01*
X190274211Y-81349523D01*
X190370184Y-81502262D01*
X190497738Y-81629816D01*
X190650478Y-81725789D01*
X190820745Y-81785368D01*
X190820750Y-81785369D01*
X190999996Y-81805565D01*
X191000000Y-81805565D01*
X191000004Y-81805565D01*
X191179249Y-81785369D01*
X191179252Y-81785368D01*
X191179255Y-81785368D01*
X191349522Y-81725789D01*
X191502262Y-81629816D01*
X191629816Y-81502262D01*
X191725789Y-81349522D01*
X191785368Y-81179255D01*
X191805565Y-81000000D01*
X191785368Y-80820745D01*
X191725789Y-80650478D01*
X191629816Y-80497738D01*
X191629814Y-80497736D01*
X191629813Y-80497734D01*
X191627550Y-80494896D01*
X191626659Y-80492715D01*
X191626111Y-80491842D01*
X191626264Y-80491745D01*
X191601144Y-80430209D01*
X191600500Y-80417587D01*
X191600500Y-71328469D01*
X191620185Y-71261430D01*
X191672989Y-71215675D01*
X191724500Y-71204469D01*
X192117871Y-71204469D01*
X192117872Y-71204469D01*
X192177483Y-71198061D01*
X192312331Y-71147766D01*
X192427546Y-71061516D01*
X192513796Y-70946301D01*
X192564091Y-70811453D01*
X192570500Y-70751843D01*
X192570499Y-67146098D01*
X192564091Y-67086487D01*
X192513884Y-66951876D01*
X192513797Y-66951641D01*
X192513793Y-66951634D01*
X192427547Y-66836425D01*
X192427544Y-66836422D01*
X192312335Y-66750176D01*
X192312328Y-66750172D01*
X192177482Y-66699878D01*
X192177483Y-66699878D01*
X192117883Y-66693471D01*
X192117881Y-66693470D01*
X192117873Y-66693470D01*
X192117864Y-66693470D01*
X189482129Y-66693470D01*
X189482123Y-66693471D01*
X189422516Y-66699878D01*
X189287671Y-66750172D01*
X189287664Y-66750176D01*
X189172455Y-66836422D01*
X189172452Y-66836425D01*
X189086206Y-66951634D01*
X189086202Y-66951641D01*
X189035908Y-67086487D01*
X189029501Y-67146086D01*
X189029501Y-67146093D01*
X189029500Y-67146105D01*
X163209997Y-67146105D01*
X163203598Y-67086597D01*
X163203596Y-67086590D01*
X163153354Y-66951883D01*
X163153350Y-66951876D01*
X163067190Y-66836782D01*
X163067187Y-66836779D01*
X162952093Y-66750619D01*
X162952086Y-66750615D01*
X162817379Y-66700373D01*
X162817372Y-66700371D01*
X162757844Y-66693970D01*
X161690000Y-66693970D01*
X161690000Y-68698970D01*
X161190000Y-68698970D01*
X161190000Y-66693970D01*
X160122155Y-66693970D01*
X160062627Y-66700371D01*
X160062620Y-66700373D01*
X159927913Y-66750615D01*
X159927906Y-66750619D01*
X159812812Y-66836779D01*
X159812809Y-66836782D01*
X159726649Y-66951876D01*
X159726645Y-66951883D01*
X159676403Y-67086590D01*
X159676401Y-67086597D01*
X159670000Y-67146125D01*
X150500500Y-67146125D01*
X150500500Y-50624500D01*
X150520185Y-50557461D01*
X150572989Y-50511706D01*
X150624500Y-50500500D01*
X199375500Y-50500500D01*
X199442539Y-50520185D01*
G37*
%TD.AperFunction*%
%TD*%
M02*
