%TF.GenerationSoftware,KiCad,Pcbnew,8.0.7*%
%TF.CreationDate,2025-01-07T01:26:18+09:00*%
%TF.ProjectId,Simple_LED,53696d70-6c65-45f4-9c45-442e6b696361,rev?*%
%TF.SameCoordinates,Original*%
%TF.FileFunction,Legend,Top*%
%TF.FilePolarity,Positive*%
%FSLAX46Y46*%
G04 Gerber Fmt 4.6, Leading zero omitted, Abs format (unit mm)*
G04 Created by KiCad (PCBNEW 8.0.7) date 2025-01-07 01:26:18*
%MOMM*%
%LPD*%
G01*
G04 APERTURE LIST*
%ADD10C,0.150000*%
%ADD11C,0.120000*%
G04 APERTURE END LIST*
D10*
X184183333Y-94674819D02*
X183850000Y-94198628D01*
X183611905Y-94674819D02*
X183611905Y-93674819D01*
X183611905Y-93674819D02*
X183992857Y-93674819D01*
X183992857Y-93674819D02*
X184088095Y-93722438D01*
X184088095Y-93722438D02*
X184135714Y-93770057D01*
X184135714Y-93770057D02*
X184183333Y-93865295D01*
X184183333Y-93865295D02*
X184183333Y-94008152D01*
X184183333Y-94008152D02*
X184135714Y-94103390D01*
X184135714Y-94103390D02*
X184088095Y-94151009D01*
X184088095Y-94151009D02*
X183992857Y-94198628D01*
X183992857Y-94198628D02*
X183611905Y-94198628D01*
X185135714Y-94674819D02*
X184564286Y-94674819D01*
X184850000Y-94674819D02*
X184850000Y-93674819D01*
X184850000Y-93674819D02*
X184754762Y-93817676D01*
X184754762Y-93817676D02*
X184659524Y-93912914D01*
X184659524Y-93912914D02*
X184564286Y-93960533D01*
X165914819Y-90968094D02*
X164914819Y-90968094D01*
X164914819Y-90968094D02*
X164914819Y-90729999D01*
X164914819Y-90729999D02*
X164962438Y-90587142D01*
X164962438Y-90587142D02*
X165057676Y-90491904D01*
X165057676Y-90491904D02*
X165152914Y-90444285D01*
X165152914Y-90444285D02*
X165343390Y-90396666D01*
X165343390Y-90396666D02*
X165486247Y-90396666D01*
X165486247Y-90396666D02*
X165676723Y-90444285D01*
X165676723Y-90444285D02*
X165771961Y-90491904D01*
X165771961Y-90491904D02*
X165867200Y-90587142D01*
X165867200Y-90587142D02*
X165914819Y-90729999D01*
X165914819Y-90729999D02*
X165914819Y-90968094D01*
X165914819Y-89444285D02*
X165914819Y-90015713D01*
X165914819Y-89729999D02*
X164914819Y-89729999D01*
X164914819Y-89729999D02*
X165057676Y-89825237D01*
X165057676Y-89825237D02*
X165152914Y-89920475D01*
X165152914Y-89920475D02*
X165200533Y-90015713D01*
D11*
%TO.C,R1*%
X189660000Y-91500000D02*
X188970000Y-91500000D01*
X188970000Y-93220000D02*
X188970000Y-89780000D01*
X188970000Y-89780000D02*
X179730000Y-89780000D01*
X179730000Y-93220000D02*
X188970000Y-93220000D01*
X179730000Y-89780000D02*
X179730000Y-93220000D01*
X179040000Y-91500000D02*
X179730000Y-91500000D01*
%TO.C,D1*%
X163045000Y-87670000D02*
X159955000Y-87670000D01*
X163044830Y-87670000D02*
G75*
G02*
X161500048Y-93220000I-1544830J-2560000D01*
G01*
X161499952Y-93220000D02*
G75*
G02*
X159955170Y-87670000I48J2990000D01*
G01*
X164000000Y-90230000D02*
G75*
G02*
X159000000Y-90230000I-2500000J0D01*
G01*
X159000000Y-90230000D02*
G75*
G02*
X164000000Y-90230000I2500000J0D01*
G01*
%TD*%
M02*
