%TF.GenerationSoftware,KiCad,Pcbnew,8.0.7*%
%TF.CreationDate,2025-01-07T09:59:28+09:00*%
%TF.ProjectId,WheatstoneBridge,57686561-7473-4746-9f6e-654272696467,rev?*%
%TF.SameCoordinates,Original*%
%TF.FileFunction,Legend,Top*%
%TF.FilePolarity,Positive*%
%FSLAX46Y46*%
G04 Gerber Fmt 4.6, Leading zero omitted, Abs format (unit mm)*
G04 Created by KiCad (PCBNEW 8.0.7) date 2025-01-07 09:59:28*
%MOMM*%
%LPD*%
G01*
G04 APERTURE LIST*
%ADD10C,0.150000*%
%ADD11C,0.120000*%
G04 APERTURE END LIST*
D10*
X174341905Y-81914819D02*
X174341905Y-80914819D01*
X174341905Y-80914819D02*
X174580000Y-80914819D01*
X174580000Y-80914819D02*
X174722857Y-80962438D01*
X174722857Y-80962438D02*
X174818095Y-81057676D01*
X174818095Y-81057676D02*
X174865714Y-81152914D01*
X174865714Y-81152914D02*
X174913333Y-81343390D01*
X174913333Y-81343390D02*
X174913333Y-81486247D01*
X174913333Y-81486247D02*
X174865714Y-81676723D01*
X174865714Y-81676723D02*
X174818095Y-81771961D01*
X174818095Y-81771961D02*
X174722857Y-81867200D01*
X174722857Y-81867200D02*
X174580000Y-81914819D01*
X174580000Y-81914819D02*
X174341905Y-81914819D01*
X175865714Y-81914819D02*
X175294286Y-81914819D01*
X175580000Y-81914819D02*
X175580000Y-80914819D01*
X175580000Y-80914819D02*
X175484762Y-81057676D01*
X175484762Y-81057676D02*
X175389524Y-81152914D01*
X175389524Y-81152914D02*
X175294286Y-81200533D01*
X118231009Y-61660714D02*
X118278628Y-61517857D01*
X118278628Y-61517857D02*
X118326247Y-61470238D01*
X118326247Y-61470238D02*
X118421485Y-61422619D01*
X118421485Y-61422619D02*
X118564342Y-61422619D01*
X118564342Y-61422619D02*
X118659580Y-61470238D01*
X118659580Y-61470238D02*
X118707200Y-61517857D01*
X118707200Y-61517857D02*
X118754819Y-61613095D01*
X118754819Y-61613095D02*
X118754819Y-61994047D01*
X118754819Y-61994047D02*
X117754819Y-61994047D01*
X117754819Y-61994047D02*
X117754819Y-61660714D01*
X117754819Y-61660714D02*
X117802438Y-61565476D01*
X117802438Y-61565476D02*
X117850057Y-61517857D01*
X117850057Y-61517857D02*
X117945295Y-61470238D01*
X117945295Y-61470238D02*
X118040533Y-61470238D01*
X118040533Y-61470238D02*
X118135771Y-61517857D01*
X118135771Y-61517857D02*
X118183390Y-61565476D01*
X118183390Y-61565476D02*
X118231009Y-61660714D01*
X118231009Y-61660714D02*
X118231009Y-61994047D01*
X117754819Y-61136904D02*
X117754819Y-60565476D01*
X118754819Y-60851190D02*
X117754819Y-60851190D01*
X118754819Y-59708333D02*
X118754819Y-60279761D01*
X118754819Y-59994047D02*
X117754819Y-59994047D01*
X117754819Y-59994047D02*
X117897676Y-60089285D01*
X117897676Y-60089285D02*
X117992914Y-60184523D01*
X117992914Y-60184523D02*
X118040533Y-60279761D01*
X159114819Y-90635238D02*
X158638628Y-90968571D01*
X159114819Y-91206666D02*
X158114819Y-91206666D01*
X158114819Y-91206666D02*
X158114819Y-90825714D01*
X158114819Y-90825714D02*
X158162438Y-90730476D01*
X158162438Y-90730476D02*
X158210057Y-90682857D01*
X158210057Y-90682857D02*
X158305295Y-90635238D01*
X158305295Y-90635238D02*
X158448152Y-90635238D01*
X158448152Y-90635238D02*
X158543390Y-90682857D01*
X158543390Y-90682857D02*
X158591009Y-90730476D01*
X158591009Y-90730476D02*
X158638628Y-90825714D01*
X158638628Y-90825714D02*
X158638628Y-91206666D01*
X158114819Y-90349523D02*
X159114819Y-90016190D01*
X159114819Y-90016190D02*
X158114819Y-89682857D01*
X159114819Y-88825714D02*
X159114819Y-89397142D01*
X159114819Y-89111428D02*
X158114819Y-89111428D01*
X158114819Y-89111428D02*
X158257676Y-89206666D01*
X158257676Y-89206666D02*
X158352914Y-89301904D01*
X158352914Y-89301904D02*
X158400533Y-89397142D01*
X152734819Y-63016666D02*
X152258628Y-63349999D01*
X152734819Y-63588094D02*
X151734819Y-63588094D01*
X151734819Y-63588094D02*
X151734819Y-63207142D01*
X151734819Y-63207142D02*
X151782438Y-63111904D01*
X151782438Y-63111904D02*
X151830057Y-63064285D01*
X151830057Y-63064285D02*
X151925295Y-63016666D01*
X151925295Y-63016666D02*
X152068152Y-63016666D01*
X152068152Y-63016666D02*
X152163390Y-63064285D01*
X152163390Y-63064285D02*
X152211009Y-63111904D01*
X152211009Y-63111904D02*
X152258628Y-63207142D01*
X152258628Y-63207142D02*
X152258628Y-63588094D01*
X152734819Y-62064285D02*
X152734819Y-62635713D01*
X152734819Y-62349999D02*
X151734819Y-62349999D01*
X151734819Y-62349999D02*
X151877676Y-62445237D01*
X151877676Y-62445237D02*
X151972914Y-62540475D01*
X151972914Y-62540475D02*
X152020533Y-62635713D01*
X198174819Y-90016666D02*
X197698628Y-90349999D01*
X198174819Y-90588094D02*
X197174819Y-90588094D01*
X197174819Y-90588094D02*
X197174819Y-90207142D01*
X197174819Y-90207142D02*
X197222438Y-90111904D01*
X197222438Y-90111904D02*
X197270057Y-90064285D01*
X197270057Y-90064285D02*
X197365295Y-90016666D01*
X197365295Y-90016666D02*
X197508152Y-90016666D01*
X197508152Y-90016666D02*
X197603390Y-90064285D01*
X197603390Y-90064285D02*
X197651009Y-90111904D01*
X197651009Y-90111904D02*
X197698628Y-90207142D01*
X197698628Y-90207142D02*
X197698628Y-90588094D01*
X197174819Y-89683332D02*
X197174819Y-89064285D01*
X197174819Y-89064285D02*
X197555771Y-89397618D01*
X197555771Y-89397618D02*
X197555771Y-89254761D01*
X197555771Y-89254761D02*
X197603390Y-89159523D01*
X197603390Y-89159523D02*
X197651009Y-89111904D01*
X197651009Y-89111904D02*
X197746247Y-89064285D01*
X197746247Y-89064285D02*
X197984342Y-89064285D01*
X197984342Y-89064285D02*
X198079580Y-89111904D01*
X198079580Y-89111904D02*
X198127200Y-89159523D01*
X198127200Y-89159523D02*
X198174819Y-89254761D01*
X198174819Y-89254761D02*
X198174819Y-89540475D01*
X198174819Y-89540475D02*
X198127200Y-89635713D01*
X198127200Y-89635713D02*
X198079580Y-89683332D01*
X198174819Y-63016666D02*
X197698628Y-63349999D01*
X198174819Y-63588094D02*
X197174819Y-63588094D01*
X197174819Y-63588094D02*
X197174819Y-63207142D01*
X197174819Y-63207142D02*
X197222438Y-63111904D01*
X197222438Y-63111904D02*
X197270057Y-63064285D01*
X197270057Y-63064285D02*
X197365295Y-63016666D01*
X197365295Y-63016666D02*
X197508152Y-63016666D01*
X197508152Y-63016666D02*
X197603390Y-63064285D01*
X197603390Y-63064285D02*
X197651009Y-63111904D01*
X197651009Y-63111904D02*
X197698628Y-63207142D01*
X197698628Y-63207142D02*
X197698628Y-63588094D01*
X197270057Y-62635713D02*
X197222438Y-62588094D01*
X197222438Y-62588094D02*
X197174819Y-62492856D01*
X197174819Y-62492856D02*
X197174819Y-62254761D01*
X197174819Y-62254761D02*
X197222438Y-62159523D01*
X197222438Y-62159523D02*
X197270057Y-62111904D01*
X197270057Y-62111904D02*
X197365295Y-62064285D01*
X197365295Y-62064285D02*
X197460533Y-62064285D01*
X197460533Y-62064285D02*
X197603390Y-62111904D01*
X197603390Y-62111904D02*
X198174819Y-62683332D01*
X198174819Y-62683332D02*
X198174819Y-62064285D01*
D11*
%TO.C,D1*%
X177640000Y-79045000D02*
X177640000Y-75955000D01*
X172090000Y-77499952D02*
G75*
G02*
X177640000Y-75955170I2990000J-48D01*
G01*
X177640000Y-79044830D02*
G75*
G02*
X172090000Y-77500048I-2560000J1544830D01*
G01*
X177580000Y-77500000D02*
G75*
G02*
X172580000Y-77500000I-2500000J0D01*
G01*
X172580000Y-77500000D02*
G75*
G02*
X177580000Y-77500000I2500000J0D01*
G01*
%TO.C,BT1*%
X104650000Y-65450000D02*
X106450000Y-63650000D01*
X104650000Y-86350000D02*
X104650000Y-65450000D01*
X104650000Y-86350000D02*
X109150000Y-86350000D01*
X106450000Y-63650000D02*
X109150000Y-63650000D01*
X107000000Y-63000000D02*
X107000000Y-61000000D01*
X108000000Y-62000000D02*
X106000000Y-62000000D01*
X109150000Y-60450000D02*
X110700000Y-60450000D01*
X109150000Y-63650000D02*
X109150000Y-60450000D01*
X109150000Y-86350000D02*
X109150000Y-89550000D01*
X109150000Y-89550000D02*
X110700000Y-89550000D01*
X116850000Y-60450000D02*
X115300000Y-60450000D01*
X116850000Y-63650000D02*
X116850000Y-60450000D01*
X116850000Y-86350000D02*
X116850000Y-89550000D01*
X116850000Y-89550000D02*
X115300000Y-89550000D01*
X121350000Y-63650000D02*
X116850000Y-63650000D01*
X121350000Y-63650000D02*
X121350000Y-86350000D01*
X121350000Y-86350000D02*
X116850000Y-86350000D01*
%TO.C,RV1*%
X152460000Y-85155000D02*
X152460000Y-94925000D01*
X157530000Y-85155000D02*
X152460000Y-85155000D01*
X157530000Y-85155000D02*
X157530000Y-94925000D01*
X157530000Y-94925000D02*
X152460000Y-94925000D01*
%TO.C,R1*%
X153280000Y-58230000D02*
X153280000Y-67470000D01*
X153280000Y-67470000D02*
X156720000Y-67470000D01*
X155000000Y-57540000D02*
X155000000Y-58230000D01*
X155000000Y-68160000D02*
X155000000Y-67470000D01*
X156720000Y-58230000D02*
X153280000Y-58230000D01*
X156720000Y-67470000D02*
X156720000Y-58230000D01*
%TO.C,R3*%
X193280000Y-85230000D02*
X193280000Y-94470000D01*
X193280000Y-94470000D02*
X196720000Y-94470000D01*
X195000000Y-84540000D02*
X195000000Y-85230000D01*
X195000000Y-95160000D02*
X195000000Y-94470000D01*
X196720000Y-85230000D02*
X193280000Y-85230000D01*
X196720000Y-94470000D02*
X196720000Y-85230000D01*
%TO.C,R2*%
X193280000Y-58230000D02*
X193280000Y-67470000D01*
X193280000Y-67470000D02*
X196720000Y-67470000D01*
X195000000Y-57540000D02*
X195000000Y-58230000D01*
X195000000Y-68160000D02*
X195000000Y-67470000D01*
X196720000Y-58230000D02*
X193280000Y-58230000D01*
X196720000Y-67470000D02*
X196720000Y-58230000D01*
%TD*%
M02*
