%TF.GenerationSoftware,KiCad,Pcbnew,8.0.7*%
%TF.CreationDate,2025-01-02T12:36:53+09:00*%
%TF.ProjectId,nRF52840_UNO,6e524635-3238-4343-905f-554e4f2e6b69,rev?*%
%TF.SameCoordinates,Original*%
%TF.FileFunction,Soldermask,Bot*%
%TF.FilePolarity,Negative*%
%FSLAX46Y46*%
G04 Gerber Fmt 4.6, Leading zero omitted, Abs format (unit mm)*
G04 Created by KiCad (PCBNEW 8.0.7) date 2025-01-02 12:36:53*
%MOMM*%
%LPD*%
G01*
G04 APERTURE LIST*
%ADD10R,1.700000X1.700000*%
%ADD11O,1.700000X1.700000*%
%ADD12C,3.200000*%
%ADD13C,3.911600*%
%ADD14C,1.879600*%
%ADD15C,2.540000*%
G04 APERTURE END LIST*
D10*
%TO.C,TP1*%
X118000000Y-72750000D03*
%TD*%
%TO.C,J6*%
X109600000Y-72500000D03*
D11*
X107060000Y-72500000D03*
X104520000Y-72500000D03*
X101980000Y-72500000D03*
X99440000Y-72500000D03*
X96900000Y-72500000D03*
X94360000Y-72500000D03*
X91820000Y-72500000D03*
X89280000Y-72500000D03*
X86740000Y-72500000D03*
X84200000Y-72500000D03*
X81660000Y-72500000D03*
X79120000Y-72500000D03*
X76580000Y-72500000D03*
X74040000Y-72500000D03*
X71500000Y-72500000D03*
%TD*%
D10*
%TO.C,J5*%
X109540000Y-42000000D03*
D11*
X107000000Y-42000000D03*
X104460000Y-42000000D03*
X101920000Y-42000000D03*
X99380000Y-42000000D03*
X96840000Y-42000000D03*
X94300000Y-42000000D03*
X91760000Y-42000000D03*
X89220000Y-42000000D03*
X86680000Y-42000000D03*
X84140000Y-42000000D03*
X81600000Y-42000000D03*
%TD*%
D10*
%TO.C,J1*%
X85790000Y-79775000D03*
D11*
X88330000Y-79775000D03*
X90870000Y-79775000D03*
X93410000Y-79775000D03*
X95950000Y-79775000D03*
X98490000Y-79775000D03*
X101030000Y-79775000D03*
X103570000Y-79775000D03*
%TD*%
D10*
%TO.C,J4*%
X103570000Y-31515000D03*
D11*
X106110000Y-31515000D03*
X108650000Y-31515000D03*
X111190000Y-31515000D03*
X113730000Y-31515000D03*
X116270000Y-31515000D03*
X118810000Y-31515000D03*
X121350000Y-31515000D03*
%TD*%
D10*
%TO.C,J3*%
X108650000Y-79775000D03*
D11*
X111190000Y-79775000D03*
X113730000Y-79775000D03*
X116270000Y-79775000D03*
X118810000Y-79775000D03*
X121350000Y-79775000D03*
%TD*%
D10*
%TO.C,J2*%
X76646000Y-31515000D03*
D11*
X79186000Y-31515000D03*
X81726000Y-31515000D03*
X84266000Y-31515000D03*
X86806000Y-31515000D03*
X89346000Y-31515000D03*
X91886000Y-31515000D03*
X94426000Y-31515000D03*
X96966000Y-31515000D03*
X99506000Y-31515000D03*
%TD*%
D12*
%TO.C,MH1*%
X73090000Y-31515000D03*
%TD*%
%TO.C,MH3*%
X123890000Y-46755000D03*
%TD*%
%TO.C,MH2*%
X71820000Y-79775000D03*
%TD*%
D13*
%TO.C,MS1*%
X67680000Y-66200000D03*
X67680000Y-48420000D03*
D14*
X81650000Y-47150000D03*
X84190000Y-47150000D03*
X86730000Y-47150000D03*
X89270000Y-47150000D03*
X91810000Y-47150000D03*
X94350000Y-47150000D03*
X96890000Y-47150000D03*
X99430000Y-47150000D03*
X101970000Y-47150000D03*
X104510000Y-47150000D03*
X107050000Y-47150000D03*
X109590000Y-47150000D03*
X109590000Y-67470000D03*
X107050000Y-67470000D03*
X104510000Y-67470000D03*
X101970000Y-67470000D03*
X99430000Y-67470000D03*
X96890000Y-67470000D03*
X94350000Y-67470000D03*
X91810000Y-67470000D03*
X89270000Y-67470000D03*
X86730000Y-67470000D03*
X84190000Y-67470000D03*
X81650000Y-67470000D03*
X79110000Y-67470000D03*
X76570000Y-67470000D03*
X74030000Y-67470000D03*
X71490000Y-67470000D03*
D15*
X113400000Y-66200000D03*
X113400000Y-48420000D03*
%TD*%
D12*
%TO.C,MH4*%
X123890000Y-74695000D03*
%TD*%
M02*
