M48
; DRILL file {KiCad 8.0.7} date 2025-01-03T14:06:55+0900
; FORMAT={-:-/ absolute / metric / decimal}
; #@! TF.CreationDate,2025-01-03T14:06:55+09:00
; #@! TF.GenerationSoftware,Kicad,Pcbnew,8.0.7
; #@! TF.FileFunction,Plated,1,2,PTH
FMAT,2
METRIC
; #@! TA.AperFunction,Plated,PTH,ComponentDrill
T1C1.000
; #@! TA.AperFunction,Plated,PTH,ComponentDrill
T2C1.016
; #@! TA.AperFunction,Plated,PTH,ComponentDrill
T3C2.500
%
G90
G05
T1
X71.49Y-67.47
X71.5Y-72.5
X74.03Y-67.47
X74.04Y-72.5
X76.57Y-67.47
X76.58Y-72.5
X79.11Y-67.47
X79.12Y-72.5
X81.6Y-42.0
X81.65Y-47.15
X81.65Y-67.47
X81.66Y-72.5
X84.14Y-42.0
X84.19Y-47.15
X84.19Y-67.47
X84.2Y-72.5
X86.68Y-42.0
X86.73Y-47.15
X86.73Y-67.47
X86.74Y-72.5
X89.22Y-42.0
X89.27Y-47.15
X89.27Y-67.47
X89.28Y-72.5
X91.76Y-42.0
X91.81Y-47.15
X91.81Y-67.47
X91.82Y-72.5
X94.3Y-42.0
X94.35Y-47.15
X94.35Y-67.47
X94.36Y-72.5
X96.84Y-42.0
X96.89Y-47.15
X96.89Y-67.47
X96.9Y-72.5
X99.38Y-42.0
X99.43Y-47.15
X99.43Y-67.47
X99.44Y-72.5
X101.92Y-42.0
X101.97Y-47.15
X101.97Y-67.47
X101.98Y-72.5
X104.46Y-42.0
X104.51Y-47.15
X104.51Y-67.47
X104.52Y-72.5
X107.0Y-42.0
X107.05Y-47.15
X107.05Y-67.47
X107.06Y-72.5
X109.54Y-42.0
X109.59Y-47.15
X109.59Y-67.47
X109.6Y-72.5
X118.0Y-72.75
T2
X76.669Y-31.68
X79.209Y-31.68
X81.749Y-31.68
X84.289Y-31.68
X85.813Y-79.94
X86.829Y-31.68
X88.353Y-79.94
X89.369Y-31.68
X90.893Y-79.94
X91.909Y-31.68
X93.433Y-79.94
X94.449Y-31.68
X95.973Y-79.94
X96.989Y-31.68
X98.513Y-79.94
X99.529Y-31.68
X101.053Y-79.94
X103.593Y-31.68
X103.593Y-79.94
X106.133Y-31.68
X108.673Y-31.68
X108.673Y-79.94
X111.213Y-31.68
X111.213Y-79.94
X113.753Y-31.68
X113.753Y-79.94
X116.293Y-31.68
X116.293Y-79.94
X118.833Y-31.68
X118.833Y-79.94
X121.373Y-31.68
X121.373Y-79.94
X121.5Y-52.0
X121.5Y-54.54
X121.5Y-57.08
X124.04Y-52.0
X124.04Y-54.54
X124.04Y-57.08
T3
X67.68Y-48.42
X67.68Y-66.2
M30
