%TF.GenerationSoftware,KiCad,Pcbnew,8.0.7*%
%TF.CreationDate,2025-01-17T16:18:59+09:00*%
%TF.ProjectId,Experimental_Kit,45787065-7269-46d6-956e-74616c5f4b69,rev?*%
%TF.SameCoordinates,Original*%
%TF.FileFunction,Soldermask,Top*%
%TF.FilePolarity,Negative*%
%FSLAX46Y46*%
G04 Gerber Fmt 4.6, Leading zero omitted, Abs format (unit mm)*
G04 Created by KiCad (PCBNEW 8.0.7) date 2025-01-17 16:18:59*
%MOMM*%
%LPD*%
G01*
G04 APERTURE LIST*
%ADD10C,3.200000*%
%ADD11R,1.700000X1.700000*%
%ADD12O,1.700000X1.700000*%
%ADD13C,3.911600*%
%ADD14C,1.879600*%
%ADD15C,2.540000*%
%ADD16R,1.600000X1.600000*%
%ADD17O,1.600000X1.600000*%
G04 APERTURE END LIST*
D10*
%TO.C,REF\u002A\u002A*%
X141000000Y-115000000D03*
%TD*%
%TO.C,REF\u002A\u002A*%
X82500000Y-115000000D03*
%TD*%
%TO.C,REF\u002A\u002A*%
X129500000Y-48000000D03*
%TD*%
%TO.C,REF\u002A\u002A*%
X89500000Y-49000000D03*
%TD*%
D11*
%TO.C,J1*%
X97500000Y-67000000D03*
D12*
X97500000Y-69540000D03*
X97500000Y-72080000D03*
X97500000Y-74620000D03*
X97500000Y-77160000D03*
%TD*%
D11*
%TO.C,J4*%
X96520000Y-82500000D03*
D12*
X93980000Y-82500000D03*
%TD*%
D11*
%TO.C,J5*%
X115460000Y-98000000D03*
D12*
X118000000Y-98000000D03*
X120540000Y-98000000D03*
%TD*%
D11*
%TO.C,J3*%
X129960000Y-55500000D03*
D12*
X132500000Y-55500000D03*
%TD*%
D11*
%TO.C,J9*%
X96520000Y-87170000D03*
D12*
X93980000Y-87170000D03*
%TD*%
D11*
%TO.C,J8*%
X129540000Y-109220000D03*
D12*
X129540000Y-106680000D03*
X127000000Y-109220000D03*
X127000000Y-106680000D03*
X124460000Y-109220000D03*
X124460000Y-106680000D03*
X121920000Y-109220000D03*
X121920000Y-106680000D03*
X119380000Y-109220000D03*
X119380000Y-106680000D03*
X116840000Y-109220000D03*
X116840000Y-106680000D03*
X114300000Y-109220000D03*
X114300000Y-106680000D03*
X111760000Y-109220000D03*
X111760000Y-106680000D03*
X109220000Y-109220000D03*
X109220000Y-106680000D03*
X106680000Y-109220000D03*
X106680000Y-106680000D03*
X104140000Y-109220000D03*
X104140000Y-106680000D03*
X101600000Y-109220000D03*
X101600000Y-106680000D03*
X99060000Y-109220000D03*
X99060000Y-106680000D03*
X96520000Y-109220000D03*
X96520000Y-106680000D03*
X93980000Y-109220000D03*
X93980000Y-106680000D03*
%TD*%
D13*
%TO.C,MS1*%
X104210000Y-47240000D03*
X121990000Y-47240000D03*
D14*
X123260000Y-61210000D03*
X123260000Y-63750000D03*
X123260000Y-66290000D03*
X123260000Y-68830000D03*
X123260000Y-71370000D03*
X123260000Y-73910000D03*
X123260000Y-76450000D03*
X123260000Y-78990000D03*
X123260000Y-81530000D03*
X123260000Y-84070000D03*
X123260000Y-86610000D03*
X123260000Y-89150000D03*
X102940000Y-89150000D03*
X102940000Y-86610000D03*
X102940000Y-84070000D03*
X102940000Y-81530000D03*
X102940000Y-78990000D03*
X102940000Y-76450000D03*
X102940000Y-73910000D03*
X102940000Y-71370000D03*
X102940000Y-68830000D03*
X102940000Y-66290000D03*
X102940000Y-63750000D03*
X102940000Y-61210000D03*
X102940000Y-58670000D03*
X102940000Y-56130000D03*
X102940000Y-53590000D03*
X102940000Y-51050000D03*
D15*
X104210000Y-92960000D03*
X121990000Y-92960000D03*
%TD*%
D11*
%TO.C,J6*%
X80010000Y-49530000D03*
D12*
X82550000Y-49530000D03*
X80010000Y-52070000D03*
X82550000Y-52070000D03*
X80010000Y-54610000D03*
X82550000Y-54610000D03*
X80010000Y-57150000D03*
X82550000Y-57150000D03*
X80010000Y-59690000D03*
X82550000Y-59690000D03*
X80010000Y-62230000D03*
X82550000Y-62230000D03*
X80010000Y-64770000D03*
X82550000Y-64770000D03*
X80010000Y-67310000D03*
X82550000Y-67310000D03*
X80010000Y-69850000D03*
X82550000Y-69850000D03*
X80010000Y-72390000D03*
X82550000Y-72390000D03*
X80010000Y-74930000D03*
X82550000Y-74930000D03*
X80010000Y-77470000D03*
X82550000Y-77470000D03*
X80010000Y-80010000D03*
X82550000Y-80010000D03*
X80010000Y-82550000D03*
X82550000Y-82550000D03*
X80010000Y-85090000D03*
X82550000Y-85090000D03*
X80010000Y-87630000D03*
X82550000Y-87630000D03*
X80010000Y-90170000D03*
X82550000Y-90170000D03*
X80010000Y-92710000D03*
X82550000Y-92710000D03*
X80010000Y-95250000D03*
X82550000Y-95250000D03*
%TD*%
D11*
%TO.C,J7*%
X140970000Y-49530000D03*
D12*
X143510000Y-49530000D03*
X140970000Y-52070000D03*
X143510000Y-52070000D03*
X140970000Y-54610000D03*
X143510000Y-54610000D03*
X140970000Y-57150000D03*
X143510000Y-57150000D03*
X140970000Y-59690000D03*
X143510000Y-59690000D03*
X140970000Y-62230000D03*
X143510000Y-62230000D03*
X140970000Y-64770000D03*
X143510000Y-64770000D03*
X140970000Y-67310000D03*
X143510000Y-67310000D03*
X140970000Y-69850000D03*
X143510000Y-69850000D03*
X140970000Y-72390000D03*
X143510000Y-72390000D03*
X140970000Y-74930000D03*
X143510000Y-74930000D03*
X140970000Y-77470000D03*
X143510000Y-77470000D03*
X140970000Y-80010000D03*
X143510000Y-80010000D03*
X140970000Y-82550000D03*
X143510000Y-82550000D03*
X140970000Y-85090000D03*
X143510000Y-85090000D03*
X140970000Y-87630000D03*
X143510000Y-87630000D03*
X140970000Y-90170000D03*
X143510000Y-90170000D03*
X140970000Y-92710000D03*
X143510000Y-92710000D03*
X140970000Y-95250000D03*
X143510000Y-95250000D03*
%TD*%
D16*
%TO.C,A1*%
X87630000Y-59690000D03*
D17*
X87630000Y-62230000D03*
X87630000Y-64770000D03*
X87630000Y-67310000D03*
X87630000Y-69850000D03*
X87630000Y-72390000D03*
X87630000Y-74930000D03*
X87630000Y-77470000D03*
X87630000Y-82550000D03*
X87630000Y-85090000D03*
X87630000Y-87630000D03*
X87630000Y-90170000D03*
X87630000Y-92710000D03*
X87630000Y-95250000D03*
X135890000Y-95250000D03*
X135890000Y-92710000D03*
X135890000Y-90170000D03*
X135890000Y-87630000D03*
X135890000Y-85090000D03*
X135890000Y-82550000D03*
X135890000Y-80010000D03*
X135890000Y-77470000D03*
X135890000Y-73410000D03*
X135890000Y-70870000D03*
X135890000Y-68330000D03*
X135890000Y-65790000D03*
X135890000Y-63250000D03*
X135890000Y-60710000D03*
X135890000Y-58170000D03*
X135890000Y-55630000D03*
X135890000Y-53090000D03*
X135890000Y-50550000D03*
%TD*%
D11*
%TO.C,J2*%
X129540000Y-118872000D03*
D12*
X129540000Y-116332000D03*
X127000000Y-118872000D03*
X127000000Y-116332000D03*
X124460000Y-118872000D03*
X124460000Y-116332000D03*
X121920000Y-118872000D03*
X121920000Y-116332000D03*
X119380000Y-118872000D03*
X119380000Y-116332000D03*
X116840000Y-118872000D03*
X116840000Y-116332000D03*
X114300000Y-118872000D03*
X114300000Y-116332000D03*
X111760000Y-118872000D03*
X111760000Y-116332000D03*
X109220000Y-118872000D03*
X109220000Y-116332000D03*
X106680000Y-118872000D03*
X106680000Y-116332000D03*
X104140000Y-118872000D03*
X104140000Y-116332000D03*
X101600000Y-118872000D03*
X101600000Y-116332000D03*
X99060000Y-118872000D03*
X99060000Y-116332000D03*
X96520000Y-118872000D03*
X96520000Y-116332000D03*
X93980000Y-118872000D03*
X93980000Y-116332000D03*
%TD*%
M02*
