M48
; DRILL file {KiCad 8.0.7} date 2025-01-17T16:19:06+0900
; FORMAT={-:-/ absolute / metric / decimal}
; #@! TF.CreationDate,2025-01-17T16:19:06+09:00
; #@! TF.GenerationSoftware,Kicad,Pcbnew,8.0.7
; #@! TF.FileFunction,Plated,1,2,PTH
FMAT,2
METRIC
; #@! TA.AperFunction,Plated,PTH,ViaDrill
T1C0.300
; #@! TA.AperFunction,Plated,PTH,ComponentDrill
T2C1.000
; #@! TA.AperFunction,Plated,PTH,ComponentDrill
T3C2.500
%
G90
G05
T1
X92.0Y-68.5
X92.25Y-111.75
X93.0Y-65.5
X93.0Y-75.0
X94.5Y-93.0
X99.0Y-85.0
X100.5Y-93.5
X130.1Y-99.5
X131.0Y-99.5
X138.5Y-99.0
T2
X80.01Y-49.53
X80.01Y-52.07
X80.01Y-54.61
X80.01Y-57.15
X80.01Y-59.69
X80.01Y-62.23
X80.01Y-64.77
X80.01Y-67.31
X80.01Y-69.85
X80.01Y-72.39
X80.01Y-74.93
X80.01Y-77.47
X80.01Y-80.01
X80.01Y-82.55
X80.01Y-85.09
X80.01Y-87.63
X80.01Y-90.17
X80.01Y-92.71
X80.01Y-95.25
X82.55Y-49.53
X82.55Y-52.07
X82.55Y-54.61
X82.55Y-57.15
X82.55Y-59.69
X82.55Y-62.23
X82.55Y-64.77
X82.55Y-67.31
X82.55Y-69.85
X82.55Y-72.39
X82.55Y-74.93
X82.55Y-77.47
X82.55Y-80.01
X82.55Y-82.55
X82.55Y-85.09
X82.55Y-87.63
X82.55Y-90.17
X82.55Y-92.71
X82.55Y-95.25
X87.63Y-59.69
X87.63Y-62.23
X87.63Y-64.77
X87.63Y-67.31
X87.63Y-69.85
X87.63Y-72.39
X87.63Y-74.93
X87.63Y-77.47
X87.63Y-82.55
X87.63Y-85.09
X87.63Y-87.63
X87.63Y-90.17
X87.63Y-92.71
X87.63Y-95.25
X93.98Y-82.5
X93.98Y-87.17
X93.98Y-106.68
X93.98Y-109.22
X93.98Y-116.332
X93.98Y-118.872
X96.52Y-82.5
X96.52Y-87.17
X96.52Y-106.68
X96.52Y-109.22
X96.52Y-116.332
X96.52Y-118.872
X97.5Y-67.0
X97.5Y-69.54
X97.5Y-72.08
X97.5Y-74.62
X97.5Y-77.16
X99.06Y-106.68
X99.06Y-109.22
X99.06Y-116.332
X99.06Y-118.872
X101.6Y-106.68
X101.6Y-109.22
X101.6Y-116.332
X101.6Y-118.872
X102.94Y-51.05
X102.94Y-53.59
X102.94Y-56.13
X102.94Y-58.67
X102.94Y-61.21
X102.94Y-63.75
X102.94Y-66.29
X102.94Y-68.83
X102.94Y-71.37
X102.94Y-73.91
X102.94Y-76.45
X102.94Y-78.99
X102.94Y-81.53
X102.94Y-84.07
X102.94Y-86.61
X102.94Y-89.15
X104.14Y-106.68
X104.14Y-109.22
X104.14Y-116.332
X104.14Y-118.872
X106.68Y-106.68
X106.68Y-109.22
X106.68Y-116.332
X106.68Y-118.872
X109.22Y-106.68
X109.22Y-109.22
X109.22Y-116.332
X109.22Y-118.872
X111.76Y-106.68
X111.76Y-109.22
X111.76Y-116.332
X111.76Y-118.872
X114.3Y-106.68
X114.3Y-109.22
X114.3Y-116.332
X114.3Y-118.872
X115.46Y-98.0
X116.84Y-106.68
X116.84Y-109.22
X116.84Y-116.332
X116.84Y-118.872
X118.0Y-98.0
X119.38Y-106.68
X119.38Y-109.22
X119.38Y-116.332
X119.38Y-118.872
X120.54Y-98.0
X121.92Y-106.68
X121.92Y-109.22
X121.92Y-116.332
X121.92Y-118.872
X123.26Y-61.21
X123.26Y-63.75
X123.26Y-66.29
X123.26Y-68.83
X123.26Y-71.37
X123.26Y-73.91
X123.26Y-76.45
X123.26Y-78.99
X123.26Y-81.53
X123.26Y-84.07
X123.26Y-86.61
X123.26Y-89.15
X124.46Y-106.68
X124.46Y-109.22
X124.46Y-116.332
X124.46Y-118.872
X127.0Y-106.68
X127.0Y-109.22
X127.0Y-116.332
X127.0Y-118.872
X129.54Y-106.68
X129.54Y-109.22
X129.54Y-116.332
X129.54Y-118.872
X129.96Y-55.5
X132.5Y-55.5
X135.89Y-50.55
X135.89Y-53.09
X135.89Y-55.63
X135.89Y-58.17
X135.89Y-60.71
X135.89Y-63.25
X135.89Y-65.79
X135.89Y-68.33
X135.89Y-70.87
X135.89Y-73.41
X135.89Y-77.47
X135.89Y-80.01
X135.89Y-82.55
X135.89Y-85.09
X135.89Y-87.63
X135.89Y-90.17
X135.89Y-92.71
X135.89Y-95.25
X140.97Y-49.53
X140.97Y-52.07
X140.97Y-54.61
X140.97Y-57.15
X140.97Y-59.69
X140.97Y-62.23
X140.97Y-64.77
X140.97Y-67.31
X140.97Y-69.85
X140.97Y-72.39
X140.97Y-74.93
X140.97Y-77.47
X140.97Y-80.01
X140.97Y-82.55
X140.97Y-85.09
X140.97Y-87.63
X140.97Y-90.17
X140.97Y-92.71
X140.97Y-95.25
X143.51Y-49.53
X143.51Y-52.07
X143.51Y-54.61
X143.51Y-57.15
X143.51Y-59.69
X143.51Y-62.23
X143.51Y-64.77
X143.51Y-67.31
X143.51Y-69.85
X143.51Y-72.39
X143.51Y-74.93
X143.51Y-77.47
X143.51Y-80.01
X143.51Y-82.55
X143.51Y-85.09
X143.51Y-87.63
X143.51Y-90.17
X143.51Y-92.71
X143.51Y-95.25
T3
X104.21Y-47.24
X121.99Y-47.24
M30
