%TF.GenerationSoftware,KiCad,Pcbnew,8.0.7*%
%TF.CreationDate,2025-01-17T16:18:59+09:00*%
%TF.ProjectId,Experimental_Kit,45787065-7269-46d6-956e-74616c5f4b69,rev?*%
%TF.SameCoordinates,Original*%
%TF.FileFunction,Copper,L2,Bot*%
%TF.FilePolarity,Positive*%
%FSLAX46Y46*%
G04 Gerber Fmt 4.6, Leading zero omitted, Abs format (unit mm)*
G04 Created by KiCad (PCBNEW 8.0.7) date 2025-01-17 16:18:59*
%MOMM*%
%LPD*%
G01*
G04 APERTURE LIST*
%TA.AperFunction,ComponentPad*%
%ADD10R,1.700000X1.700000*%
%TD*%
%TA.AperFunction,ComponentPad*%
%ADD11O,1.700000X1.700000*%
%TD*%
%TA.AperFunction,ComponentPad*%
%ADD12C,3.810000*%
%TD*%
%TA.AperFunction,ComponentPad*%
%ADD13C,1.778000*%
%TD*%
%TA.AperFunction,ComponentPad*%
%ADD14R,1.600000X1.600000*%
%TD*%
%TA.AperFunction,ComponentPad*%
%ADD15O,1.600000X1.600000*%
%TD*%
%TA.AperFunction,ViaPad*%
%ADD16C,0.600000*%
%TD*%
%TA.AperFunction,Conductor*%
%ADD17C,0.200000*%
%TD*%
G04 APERTURE END LIST*
D10*
%TO.P,J1,1,Pin_1*%
%TO.N,Net-(J1-Pin_1)*%
X97500000Y-67000000D03*
D11*
%TO.P,J1,2,Pin_2*%
%TO.N,Net-(J1-Pin_2)*%
X97500000Y-69540000D03*
%TO.P,J1,3,Pin_3*%
%TO.N,Net-(J1-Pin_3)*%
X97500000Y-72080000D03*
%TO.P,J1,4,Pin_4*%
%TO.N,/DIO10*%
X97500000Y-74620000D03*
%TO.P,J1,5,Pin_5*%
%TO.N,GND*%
X97500000Y-77160000D03*
%TD*%
D10*
%TO.P,J4,1,Pin_1*%
%TO.N,/W1*%
X96520000Y-82500000D03*
D11*
%TO.P,J4,2,Pin_2*%
%TO.N,/A0*%
X93980000Y-82500000D03*
%TD*%
D10*
%TO.P,J5,1,Pin_1*%
%TO.N,/SDA*%
X115460000Y-98000000D03*
D11*
%TO.P,J5,2,Pin_2*%
%TO.N,/SCL*%
X118000000Y-98000000D03*
%TO.P,J5,3,Pin_3*%
%TO.N,GND*%
X120540000Y-98000000D03*
%TD*%
D10*
%TO.P,J3,1,Pin_1*%
%TO.N,/Vp*%
X129960000Y-55500000D03*
D11*
%TO.P,J3,2,Pin_2*%
%TO.N,AREF*%
X132500000Y-55500000D03*
%TD*%
D10*
%TO.P,J9,1,Pin_1*%
%TO.N,/W2*%
X96520000Y-87170000D03*
D11*
%TO.P,J9,2,Pin_2*%
%TO.N,/A1*%
X93980000Y-87170000D03*
%TD*%
D10*
%TO.P,J8,1,Pin_1*%
%TO.N,/Ch1N*%
X129540000Y-109220000D03*
D11*
%TO.P,J8,2,Pin_2*%
%TO.N,/Ch1P*%
X129540000Y-106680000D03*
%TO.P,J8,3,Pin_3*%
%TO.N,/Ch2N*%
X127000000Y-109220000D03*
%TO.P,J8,4,Pin_4*%
%TO.N,/Ch2P*%
X127000000Y-106680000D03*
%TO.P,J8,5,Pin_5*%
%TO.N,GND*%
X124460000Y-109220000D03*
%TO.P,J8,6,Pin_6*%
X124460000Y-106680000D03*
%TO.P,J8,7,Pin_7*%
%TO.N,/Vn*%
X121920000Y-109220000D03*
%TO.P,J8,8,Pin_8*%
%TO.N,/Vp*%
X121920000Y-106680000D03*
%TO.P,J8,9,Pin_9*%
%TO.N,/W2*%
X119380000Y-109220000D03*
%TO.P,J8,10,Pin_10*%
%TO.N,/W1*%
X119380000Y-106680000D03*
%TO.P,J8,11,Pin_11*%
%TO.N,GND*%
X116840000Y-109220000D03*
%TO.P,J8,12,Pin_12*%
X116840000Y-106680000D03*
%TO.P,J8,13,Pin_13*%
%TO.N,/TO*%
X114300000Y-109220000D03*
%TO.P,J8,14,Pin_14*%
%TO.N,/TI*%
X114300000Y-106680000D03*
%TO.P,J8,15,Pin_15*%
%TO.N,/DIO8*%
X111760000Y-109220000D03*
%TO.P,J8,16,Pin_16*%
%TO.N,/DIO0*%
X111760000Y-106680000D03*
%TO.P,J8,17,Pin_17*%
%TO.N,/DIO9*%
X109220000Y-109220000D03*
%TO.P,J8,18,Pin_18*%
%TO.N,/DIO1*%
X109220000Y-106680000D03*
%TO.P,J8,19,Pin_19*%
%TO.N,/DIO10*%
X106680000Y-109220000D03*
%TO.P,J8,20,Pin_20*%
%TO.N,/DIO2*%
X106680000Y-106680000D03*
%TO.P,J8,21,Pin_21*%
%TO.N,/DIO11*%
X104140000Y-109220000D03*
%TO.P,J8,22,Pin_22*%
%TO.N,/DIO3*%
X104140000Y-106680000D03*
%TO.P,J8,23,Pin_23*%
%TO.N,/DIO12*%
X101600000Y-109220000D03*
%TO.P,J8,24,Pin_24*%
%TO.N,/DIO4*%
X101600000Y-106680000D03*
%TO.P,J8,25,Pin_25*%
%TO.N,/DIO13*%
X99060000Y-109220000D03*
%TO.P,J8,26,Pin_26*%
%TO.N,/DIO5*%
X99060000Y-106680000D03*
%TO.P,J8,27,Pin_27*%
%TO.N,/SDA{slash}A4*%
X96520000Y-109220000D03*
%TO.P,J8,28,Pin_28*%
%TO.N,/DIO6*%
X96520000Y-106680000D03*
%TO.P,J8,29,Pin_29*%
%TO.N,/SCL{slash}A5*%
X93980000Y-109220000D03*
%TO.P,J8,30,Pin_30*%
%TO.N,/DIO7*%
X93980000Y-106680000D03*
%TD*%
D12*
%TO.P,MS1,P$2*%
%TO.N,N/C*%
X104210000Y-47240000D03*
%TO.P,MS1,P$1*%
X121990000Y-47240000D03*
D13*
%TO.P,MS1,28,VBAT*%
%TO.N,unconnected-(MS1-VBAT-Pad28)*%
X123260000Y-61210000D03*
%TO.P,MS1,27,EN*%
%TO.N,unconnected-(MS1-EN-Pad27)*%
X123260000Y-63750000D03*
%TO.P,MS1,26,USB*%
%TO.N,unconnected-(MS1-USB-Pad26)*%
X123260000Y-66290000D03*
%TO.P,MS1,25,GPIO13*%
%TO.N,/DIO13*%
X123260000Y-68830000D03*
%TO.P,MS1,24,GPIO12*%
%TO.N,/DIO12*%
X123260000Y-71370000D03*
%TO.P,MS1,23,GPIO11*%
%TO.N,/DIO11*%
X123260000Y-73910000D03*
%TO.P,MS1,22,GPIO10*%
%TO.N,/DIO10*%
X123260000Y-76450000D03*
%TO.P,MS1,21,GPIO9*%
%TO.N,/DIO9*%
X123260000Y-78990000D03*
%TO.P,MS1,20,GPIO6*%
%TO.N,/DIO6*%
X123260000Y-81530000D03*
%TO.P,MS1,19,GPIO5*%
%TO.N,/DIO5*%
X123260000Y-84070000D03*
%TO.P,MS1,18,GPIOSCL*%
%TO.N,/SDA*%
X123260000Y-86610000D03*
%TO.P,MS1,17,GPIOSDA*%
%TO.N,/SCL*%
X123260000Y-89150000D03*
%TO.P,MS1,16,NC*%
%TO.N,/DIO2*%
X102940000Y-89150000D03*
%TO.P,MS1,15,GPIOTX*%
%TO.N,/DIO1*%
X102940000Y-86610000D03*
%TO.P,MS1,14,GPIORX*%
%TO.N,/DIO0*%
X102940000Y-84070000D03*
%TO.P,MS1,13,GPIOMISO*%
%TO.N,Net-(J1-Pin_3)*%
X102940000Y-81530000D03*
%TO.P,MS1,12,GPIOMOSI*%
%TO.N,Net-(J1-Pin_2)*%
X102940000Y-78990000D03*
%TO.P,MS1,11,GPIOSCK*%
%TO.N,Net-(J1-Pin_1)*%
X102940000Y-76450000D03*
%TO.P,MS1,10,GPIOA5*%
%TO.N,/SCL{slash}A5*%
X102940000Y-73910000D03*
%TO.P,MS1,9,GPIOA4*%
%TO.N,/SDA{slash}A4*%
X102940000Y-71370000D03*
%TO.P,MS1,8,GPIOA3*%
%TO.N,/A3*%
X102940000Y-68830000D03*
%TO.P,MS1,7,GPIOA2*%
%TO.N,/A2*%
X102940000Y-66290000D03*
%TO.P,MS1,6,GPIOA1*%
%TO.N,/A1*%
X102940000Y-63750000D03*
%TO.P,MS1,5,GPIOA0*%
%TO.N,/A0*%
X102940000Y-61210000D03*
%TO.P,MS1,4,GND*%
%TO.N,GND*%
X102940000Y-58670000D03*
%TO.P,MS1,3,AREF*%
%TO.N,AREF*%
X102940000Y-56130000D03*
%TO.P,MS1,2,3V*%
%TO.N,+3V3*%
X102940000Y-53590000D03*
%TO.P,MS1,1,~{RESET}*%
%TO.N,/~{RESET}*%
X102940000Y-51050000D03*
%TD*%
D10*
%TO.P,J6,1,Pin_1*%
%TO.N,unconnected-(J6-Pin_1-Pad1)*%
X80010000Y-49530000D03*
D11*
%TO.P,J6,2,Pin_2*%
%TO.N,unconnected-(J6-Pin_2-Pad2)*%
X82550000Y-49530000D03*
%TO.P,J6,3,Pin_3*%
%TO.N,unconnected-(J6-Pin_3-Pad3)*%
X80010000Y-52070000D03*
%TO.P,J6,4,Pin_4*%
%TO.N,unconnected-(J6-Pin_4-Pad4)*%
X82550000Y-52070000D03*
%TO.P,J6,5,Pin_5*%
%TO.N,AVDD*%
X80010000Y-54610000D03*
%TO.P,J6,6,Pin_6*%
%TO.N,/E5V*%
X82550000Y-54610000D03*
%TO.P,J6,7,Pin_7*%
%TO.N,unconnected-(J6-Pin_7-Pad7)*%
X80010000Y-57150000D03*
%TO.P,J6,8,Pin_8*%
%TO.N,GND*%
X82550000Y-57150000D03*
%TO.P,J6,9,Pin_9*%
%TO.N,unconnected-(J6-Pin_9-Pad9)*%
X80010000Y-59690000D03*
%TO.P,J6,10,Pin_10*%
%TO.N,unconnected-(J6-Pin_10-Pad10)*%
X82550000Y-59690000D03*
%TO.P,J6,11,Pin_11*%
%TO.N,unconnected-(J6-Pin_11-Pad11)*%
X80010000Y-62230000D03*
%TO.P,J6,12,Pin_12*%
%TO.N,/IOREF*%
X82550000Y-62230000D03*
%TO.P,J6,13,Pin_13*%
%TO.N,unconnected-(J6-Pin_13-Pad13)*%
X80010000Y-64770000D03*
%TO.P,J6,14,Pin_14*%
%TO.N,/~{RESET}*%
X82550000Y-64770000D03*
%TO.P,J6,15,Pin_15*%
%TO.N,unconnected-(J6-Pin_15-Pad15)*%
X80010000Y-67310000D03*
%TO.P,J6,16,Pin_16*%
%TO.N,+3V3*%
X82550000Y-67310000D03*
%TO.P,J6,17,Pin_17*%
%TO.N,unconnected-(J6-Pin_17-Pad17)*%
X80010000Y-69850000D03*
%TO.P,J6,18,Pin_18*%
%TO.N,+5V*%
X82550000Y-69850000D03*
%TO.P,J6,19,Pin_19*%
%TO.N,GND*%
X80010000Y-72390000D03*
%TO.P,J6,20,Pin_20*%
X82550000Y-72390000D03*
%TO.P,J6,21,Pin_21*%
%TO.N,unconnected-(J6-Pin_21-Pad21)*%
X80010000Y-74930000D03*
%TO.P,J6,22,Pin_22*%
%TO.N,GND*%
X82550000Y-74930000D03*
%TO.P,J6,23,Pin_23*%
%TO.N,unconnected-(J6-Pin_23-Pad23)*%
X80010000Y-77470000D03*
%TO.P,J6,24,Pin_24*%
%TO.N,VIN*%
X82550000Y-77470000D03*
%TO.P,J6,25,Pin_25*%
%TO.N,unconnected-(J6-Pin_25-Pad25)*%
X80010000Y-80010000D03*
%TO.P,J6,26,Pin_26*%
%TO.N,unconnected-(J6-Pin_26-Pad26)*%
X82550000Y-80010000D03*
%TO.P,J6,27,Pin_27*%
%TO.N,unconnected-(J6-Pin_27-Pad27)*%
X80010000Y-82550000D03*
%TO.P,J6,28,Pin_28*%
%TO.N,/A0*%
X82550000Y-82550000D03*
%TO.P,J6,29,Pin_29*%
%TO.N,unconnected-(J6-Pin_29-Pad29)*%
X80010000Y-85090000D03*
%TO.P,J6,30,Pin_30*%
%TO.N,/A1*%
X82550000Y-85090000D03*
%TO.P,J6,31,Pin_31*%
%TO.N,unconnected-(J6-Pin_31-Pad31)*%
X80010000Y-87630000D03*
%TO.P,J6,32,Pin_32*%
%TO.N,/A2*%
X82550000Y-87630000D03*
%TO.P,J6,33,Pin_33*%
%TO.N,+BATT*%
X80010000Y-90170000D03*
%TO.P,J6,34,Pin_34*%
%TO.N,/A3*%
X82550000Y-90170000D03*
%TO.P,J6,35,Pin_35*%
%TO.N,unconnected-(J6-Pin_35-Pad35)*%
X80010000Y-92710000D03*
%TO.P,J6,36,Pin_36*%
%TO.N,/SDA{slash}A4*%
X82550000Y-92710000D03*
%TO.P,J6,37,Pin_37*%
%TO.N,unconnected-(J6-Pin_37-Pad37)*%
X80010000Y-95250000D03*
%TO.P,J6,38,Pin_38*%
%TO.N,/SCL{slash}A5*%
X82550000Y-95250000D03*
%TD*%
D10*
%TO.P,J7,1,Pin_1*%
%TO.N,unconnected-(J7-Pin_1-Pad1)*%
X140970000Y-49530000D03*
D11*
%TO.P,J7,2,Pin_2*%
%TO.N,unconnected-(J7-Pin_2-Pad2)*%
X143510000Y-49530000D03*
%TO.P,J7,3,Pin_3*%
%TO.N,unconnected-(J7-Pin_3-Pad3)*%
X140970000Y-52070000D03*
%TO.P,J7,4,Pin_4*%
%TO.N,unconnected-(J7-Pin_4-Pad4)*%
X143510000Y-52070000D03*
%TO.P,J7,5,Pin_5*%
%TO.N,unconnected-(J7-Pin_5-Pad5)*%
X140970000Y-54610000D03*
%TO.P,J7,6,Pin_6*%
%TO.N,unconnected-(J7-Pin_6-Pad6)*%
X143510000Y-54610000D03*
%TO.P,J7,7,Pin_7*%
%TO.N,AREF*%
X140970000Y-57150000D03*
%TO.P,J7,8,Pin_8*%
%TO.N,/5V_USB_CHGR*%
X143510000Y-57150000D03*
%TO.P,J7,9,Pin_9*%
%TO.N,GND*%
X140970000Y-59690000D03*
%TO.P,J7,10,Pin_10*%
%TO.N,unconnected-(J7-Pin_10-Pad10)*%
X143510000Y-59690000D03*
%TO.P,J7,11,Pin_11*%
%TO.N,/DIO13*%
X140970000Y-62230000D03*
%TO.P,J7,12,Pin_12*%
%TO.N,unconnected-(J7-Pin_12-Pad12)*%
X143510000Y-62230000D03*
%TO.P,J7,13,Pin_13*%
%TO.N,/DIO12*%
X140970000Y-64770000D03*
%TO.P,J7,14,Pin_14*%
%TO.N,unconnected-(J7-Pin_14-Pad14)*%
X143510000Y-64770000D03*
%TO.P,J7,15,Pin_15*%
%TO.N,/DIO11*%
X140970000Y-67310000D03*
%TO.P,J7,16,Pin_16*%
%TO.N,unconnected-(J7-Pin_16-Pad16)*%
X143510000Y-67310000D03*
%TO.P,J7,17,Pin_17*%
%TO.N,/DIO10*%
X140970000Y-69850000D03*
%TO.P,J7,18,Pin_18*%
%TO.N,unconnected-(J7-Pin_18-Pad18)*%
X143510000Y-69850000D03*
%TO.P,J7,19,Pin_19*%
%TO.N,/DIO9*%
X140970000Y-72390000D03*
%TO.P,J7,20,Pin_20*%
%TO.N,GND*%
X143510000Y-72390000D03*
%TO.P,J7,21,Pin_21*%
%TO.N,/DIO8*%
X140970000Y-74930000D03*
%TO.P,J7,22,Pin_22*%
%TO.N,unconnected-(J7-Pin_22-Pad22)*%
X143510000Y-74930000D03*
%TO.P,J7,23,Pin_23*%
%TO.N,/DIO7*%
X140970000Y-77470000D03*
%TO.P,J7,24,Pin_24*%
%TO.N,unconnected-(J7-Pin_24-Pad24)*%
X143510000Y-77470000D03*
%TO.P,J7,25,Pin_25*%
%TO.N,/DIO6*%
X140970000Y-80010000D03*
%TO.P,J7,26,Pin_26*%
%TO.N,unconnected-(J7-Pin_26-Pad26)*%
X143510000Y-80010000D03*
%TO.P,J7,27,Pin_27*%
%TO.N,/DIO5*%
X140970000Y-82550000D03*
%TO.P,J7,28,Pin_28*%
%TO.N,unconnected-(J7-Pin_28-Pad28)*%
X143510000Y-82550000D03*
%TO.P,J7,29,Pin_29*%
%TO.N,/DIO4*%
X140970000Y-85090000D03*
%TO.P,J7,30,Pin_30*%
%TO.N,unconnected-(J7-Pin_30-Pad30)*%
X143510000Y-85090000D03*
%TO.P,J7,31,Pin_31*%
%TO.N,/DIO3*%
X140970000Y-87630000D03*
%TO.P,J7,32,Pin_32*%
%TO.N,GND*%
X143510000Y-87630000D03*
%TO.P,J7,33,Pin_33*%
%TO.N,/DIO2*%
X140970000Y-90170000D03*
%TO.P,J7,34,Pin_34*%
%TO.N,unconnected-(J7-Pin_34-Pad34)*%
X143510000Y-90170000D03*
%TO.P,J7,35,Pin_35*%
%TO.N,/DIO1*%
X140970000Y-92710000D03*
%TO.P,J7,36,Pin_36*%
%TO.N,unconnected-(J7-Pin_36-Pad36)*%
X143510000Y-92710000D03*
%TO.P,J7,37,Pin_37*%
%TO.N,/DIO0*%
X140970000Y-95250000D03*
%TO.P,J7,38,Pin_38*%
%TO.N,unconnected-(J7-Pin_38-Pad38)*%
X143510000Y-95250000D03*
%TD*%
D14*
%TO.P,A1,1,NC*%
%TO.N,unconnected-(A1-NC-Pad1)*%
X87630000Y-59690000D03*
D15*
%TO.P,A1,2,IOREF*%
%TO.N,/IOREF*%
X87630000Y-62230000D03*
%TO.P,A1,3,~{RESET}*%
%TO.N,/~{RESET}*%
X87630000Y-64770000D03*
%TO.P,A1,4,3V3*%
%TO.N,+3V3*%
X87630000Y-67310000D03*
%TO.P,A1,5,+5V*%
%TO.N,+5V*%
X87630000Y-69850000D03*
%TO.P,A1,6,GND*%
%TO.N,GND*%
X87630000Y-72390000D03*
%TO.P,A1,7,GND*%
X87630000Y-74930000D03*
%TO.P,A1,8,VIN*%
%TO.N,VIN*%
X87630000Y-77470000D03*
%TO.P,A1,9,A0*%
%TO.N,/A0*%
X87630000Y-82550000D03*
%TO.P,A1,10,A1*%
%TO.N,/A1*%
X87630000Y-85090000D03*
%TO.P,A1,11,A2*%
%TO.N,/A2*%
X87630000Y-87630000D03*
%TO.P,A1,12,A3*%
%TO.N,/A3*%
X87630000Y-90170000D03*
%TO.P,A1,13,SDA/A4*%
%TO.N,/SDA{slash}A4*%
X87630000Y-92710000D03*
%TO.P,A1,14,SCL/A5*%
%TO.N,/SCL{slash}A5*%
X87630000Y-95250000D03*
%TO.P,A1,15,D0/RX*%
%TO.N,/DIO0*%
X135890000Y-95250000D03*
%TO.P,A1,16,D1/TX*%
%TO.N,/DIO1*%
X135890000Y-92710000D03*
%TO.P,A1,17,D2*%
%TO.N,/DIO2*%
X135890000Y-90170000D03*
%TO.P,A1,18,D3*%
%TO.N,/DIO3*%
X135890000Y-87630000D03*
%TO.P,A1,19,D4*%
%TO.N,/DIO4*%
X135890000Y-85090000D03*
%TO.P,A1,20,D5*%
%TO.N,/DIO5*%
X135890000Y-82550000D03*
%TO.P,A1,21,D6*%
%TO.N,/DIO6*%
X135890000Y-80010000D03*
%TO.P,A1,22,D7*%
%TO.N,/DIO7*%
X135890000Y-77470000D03*
%TO.P,A1,23,D8*%
%TO.N,/DIO8*%
X135890000Y-73410000D03*
%TO.P,A1,24,D9*%
%TO.N,/DIO9*%
X135890000Y-70870000D03*
%TO.P,A1,25,D10*%
%TO.N,/DIO10*%
X135890000Y-68330000D03*
%TO.P,A1,26,D11*%
%TO.N,/DIO11*%
X135890000Y-65790000D03*
%TO.P,A1,27,D12*%
%TO.N,/DIO12*%
X135890000Y-63250000D03*
%TO.P,A1,28,D13*%
%TO.N,/DIO13*%
X135890000Y-60710000D03*
%TO.P,A1,29,GND*%
%TO.N,GND*%
X135890000Y-58170000D03*
%TO.P,A1,30,AREF*%
%TO.N,AREF*%
X135890000Y-55630000D03*
%TO.P,A1,31,SDA/A4*%
%TO.N,unconnected-(A1-SDA{slash}A4-Pad31)*%
X135890000Y-53090000D03*
%TO.P,A1,32,SCL/A5*%
%TO.N,unconnected-(A1-SCL{slash}A5-Pad32)*%
X135890000Y-50550000D03*
%TD*%
D10*
%TO.P,J2,1,Pin_1*%
%TO.N,/Ch1N*%
X129540000Y-118872000D03*
D11*
%TO.P,J2,2,Pin_2*%
%TO.N,/Ch1P*%
X129540000Y-116332000D03*
%TO.P,J2,3,Pin_3*%
%TO.N,/Ch2N*%
X127000000Y-118872000D03*
%TO.P,J2,4,Pin_4*%
%TO.N,/Ch2P*%
X127000000Y-116332000D03*
%TO.P,J2,5,Pin_5*%
%TO.N,GND*%
X124460000Y-118872000D03*
%TO.P,J2,6,Pin_6*%
X124460000Y-116332000D03*
%TO.P,J2,7,Pin_7*%
%TO.N,/Vn*%
X121920000Y-118872000D03*
%TO.P,J2,8,Pin_8*%
%TO.N,/Vp*%
X121920000Y-116332000D03*
%TO.P,J2,9,Pin_9*%
%TO.N,/W2*%
X119380000Y-118872000D03*
%TO.P,J2,10,Pin_10*%
%TO.N,/W1*%
X119380000Y-116332000D03*
%TO.P,J2,11,Pin_11*%
%TO.N,GND*%
X116840000Y-118872000D03*
%TO.P,J2,12,Pin_12*%
X116840000Y-116332000D03*
%TO.P,J2,13,Pin_13*%
%TO.N,/TO*%
X114300000Y-118872000D03*
%TO.P,J2,14,Pin_14*%
%TO.N,/TI*%
X114300000Y-116332000D03*
%TO.P,J2,15,Pin_15*%
%TO.N,/DIO8*%
X111760000Y-118872000D03*
%TO.P,J2,16,Pin_16*%
%TO.N,/DIO0*%
X111760000Y-116332000D03*
%TO.P,J2,17,Pin_17*%
%TO.N,/DIO9*%
X109220000Y-118872000D03*
%TO.P,J2,18,Pin_18*%
%TO.N,/DIO1*%
X109220000Y-116332000D03*
%TO.P,J2,19,Pin_19*%
%TO.N,/DIO10*%
X106680000Y-118872000D03*
%TO.P,J2,20,Pin_20*%
%TO.N,/DIO2*%
X106680000Y-116332000D03*
%TO.P,J2,21,Pin_21*%
%TO.N,/DIO11*%
X104140000Y-118872000D03*
%TO.P,J2,22,Pin_22*%
%TO.N,/DIO3*%
X104140000Y-116332000D03*
%TO.P,J2,23,Pin_23*%
%TO.N,/DIO12*%
X101600000Y-118872000D03*
%TO.P,J2,24,Pin_24*%
%TO.N,/DIO4*%
X101600000Y-116332000D03*
%TO.P,J2,25,Pin_25*%
%TO.N,/DIO13*%
X99060000Y-118872000D03*
%TO.P,J2,26,Pin_26*%
%TO.N,/DIO5*%
X99060000Y-116332000D03*
%TO.P,J2,27,Pin_27*%
%TO.N,/SDA{slash}A4*%
X96520000Y-118872000D03*
%TO.P,J2,28,Pin_28*%
%TO.N,/DIO6*%
X96520000Y-116332000D03*
%TO.P,J2,29,Pin_29*%
%TO.N,/SCL{slash}A5*%
X93980000Y-118872000D03*
%TO.P,J2,30,Pin_30*%
%TO.N,/DIO7*%
X93980000Y-116332000D03*
%TD*%
D16*
%TO.N,/A3*%
X92000000Y-68500000D03*
%TO.N,/A1*%
X99000000Y-85000000D03*
%TO.N,/SCL{slash}A5*%
X100500000Y-93500000D03*
%TO.N,/A2*%
X93000000Y-65500000D03*
%TO.N,/SDA{slash}A4*%
X94500000Y-93000000D03*
X92250000Y-111750000D03*
%TO.N,/Vp*%
X138500000Y-99000000D03*
%TO.N,/DIO7*%
X130100000Y-99500000D03*
%TO.N,GND*%
X93000000Y-75000000D03*
%TO.N,/DIO6*%
X131000000Y-99500000D03*
%TD*%
D17*
%TO.N,/~{RESET}*%
X87630000Y-64770000D02*
X89220000Y-64770000D01*
X89220000Y-64770000D02*
X102940000Y-51050000D01*
%TO.N,+3V3*%
X89190000Y-67310000D02*
X98250000Y-58250000D01*
X98280000Y-58250000D02*
X98250000Y-58250000D01*
X87630000Y-67310000D02*
X89190000Y-67310000D01*
X102940000Y-53590000D02*
X98280000Y-58250000D01*
%TO.N,/A0*%
X93980000Y-68220000D02*
X93980000Y-82500000D01*
X100990000Y-61210000D02*
X93980000Y-68220000D01*
X102940000Y-61210000D02*
X100990000Y-61210000D01*
%TO.N,/A3*%
X92000000Y-85800000D02*
X87630000Y-90170000D01*
X92000000Y-68500000D02*
X92000000Y-85800000D01*
%TO.N,/A1*%
X93980000Y-87170000D02*
X96150000Y-85000000D01*
X96150000Y-85000000D02*
X99000000Y-85000000D01*
%TO.N,/SCL{slash}A5*%
X92830000Y-112170000D02*
X93980000Y-111020000D01*
X91220000Y-109220000D02*
X93980000Y-109220000D01*
X87630000Y-95250000D02*
X87630000Y-105630000D01*
X93980000Y-111020000D02*
X93980000Y-109220000D01*
X98749999Y-95250000D02*
X100499999Y-93500000D01*
X93980000Y-118872000D02*
X92830000Y-117722000D01*
X87630000Y-105630000D02*
X91220000Y-109220000D01*
X92830000Y-117722000D02*
X92830000Y-112170000D01*
X87630000Y-95250000D02*
X98749999Y-95250000D01*
X100499999Y-93500000D02*
X100500000Y-93500000D01*
%TO.N,/A2*%
X91000000Y-84260000D02*
X87630000Y-87630000D01*
X93000000Y-65500000D02*
X91000000Y-67500000D01*
X91000000Y-67500000D02*
X91000000Y-84260000D01*
%TO.N,/SDA{slash}A4*%
X87630000Y-92710000D02*
X86530000Y-93810000D01*
X96520000Y-118872000D02*
X95370000Y-117722000D01*
X95370000Y-117722000D02*
X95370000Y-114130000D01*
X95370000Y-114130000D02*
X96500000Y-113000000D01*
X86530000Y-93810000D02*
X86530000Y-106030000D01*
X86530000Y-106030000D02*
X92250000Y-111750000D01*
X87630000Y-92710000D02*
X94210000Y-92710000D01*
X96500000Y-109240000D02*
X96520000Y-109220000D01*
X94210000Y-92710000D02*
X94500000Y-93000000D01*
X96500000Y-113000000D02*
X96500000Y-109240000D01*
%TO.N,Net-(J1-Pin_1)*%
X97500000Y-67000000D02*
X101751000Y-71251000D01*
X101751000Y-75261000D02*
X102940000Y-76450000D01*
X101751000Y-71251000D02*
X101751000Y-75261000D01*
%TO.N,/SDA*%
X123260000Y-86610000D02*
X115460000Y-94410000D01*
X115460000Y-94410000D02*
X115460000Y-98000000D01*
%TO.N,/DIO10*%
X100551000Y-77671000D02*
X100551000Y-80822500D01*
X105781000Y-82719000D02*
X112050000Y-76450000D01*
X105530000Y-117722000D02*
X106680000Y-118872000D01*
X102447500Y-82719000D02*
X105781000Y-82719000D01*
X127770000Y-76450000D02*
X135890000Y-68330000D01*
X97500000Y-74620000D02*
X100551000Y-77671000D01*
X105530000Y-115855654D02*
X105530000Y-117722000D01*
X106680000Y-114705654D02*
X105530000Y-115855654D01*
X112050000Y-76450000D02*
X123260000Y-76450000D01*
X100551000Y-80822500D02*
X102447500Y-82719000D01*
X123260000Y-76450000D02*
X127770000Y-76450000D01*
X106680000Y-109220000D02*
X106680000Y-114705654D01*
%TO.N,/Vn*%
X120770000Y-117722000D02*
X121920000Y-118872000D01*
X121920000Y-109220000D02*
X121920000Y-114705654D01*
X121920000Y-114705654D02*
X120770000Y-115855654D01*
X120770000Y-115855654D02*
X120770000Y-117722000D01*
%TO.N,/Ch2P*%
X127000000Y-106680000D02*
X128150000Y-107830000D01*
X128150000Y-107830000D02*
X128150000Y-115182000D01*
X128150000Y-115182000D02*
X127000000Y-116332000D01*
%TO.N,/Ch1P*%
X130690000Y-107830000D02*
X130690000Y-115182000D01*
X130690000Y-115182000D02*
X129540000Y-116332000D01*
X129540000Y-106680000D02*
X130690000Y-107830000D01*
%TO.N,/Ch2N*%
X125850000Y-110370000D02*
X125850000Y-117722000D01*
X127000000Y-109220000D02*
X125850000Y-110370000D01*
X125850000Y-117722000D02*
X127000000Y-118872000D01*
%TO.N,/W1*%
X119380000Y-106680000D02*
X120530000Y-107830000D01*
X120530000Y-107830000D02*
X120530000Y-115182000D01*
X120530000Y-115182000D02*
X119380000Y-116332000D01*
%TO.N,/TI*%
X115450000Y-107830000D02*
X115450000Y-115182000D01*
X114300000Y-106680000D02*
X115450000Y-107830000D01*
X115450000Y-115182000D02*
X114300000Y-116332000D01*
%TO.N,/TO*%
X113150000Y-117722000D02*
X114300000Y-118872000D01*
X113150000Y-115855654D02*
X113150000Y-117722000D01*
X114300000Y-109220000D02*
X114300000Y-114705654D01*
X114300000Y-114705654D02*
X113150000Y-115855654D01*
%TO.N,/Ch1N*%
X129540000Y-109220000D02*
X129540000Y-114705654D01*
X129540000Y-114705654D02*
X128390000Y-115855654D01*
X128390000Y-115855654D02*
X128390000Y-117722000D01*
X128390000Y-117722000D02*
X129540000Y-118872000D01*
%TO.N,/Vp*%
X131460000Y-57000000D02*
X129960000Y-55500000D01*
X121920000Y-106680000D02*
X123070000Y-107830000D01*
X123070000Y-115182000D02*
X121920000Y-116332000D01*
X137500000Y-57000000D02*
X138500000Y-58000000D01*
X138500000Y-99000000D02*
X138500000Y-58000000D01*
X131460000Y-57000000D02*
X137500000Y-57000000D01*
X123070000Y-107830000D02*
X123070000Y-115182000D01*
%TO.N,/W2*%
X119380000Y-109220000D02*
X118230000Y-110370000D01*
X118230000Y-117722000D02*
X119380000Y-118872000D01*
X118230000Y-110370000D02*
X118230000Y-117722000D01*
%TO.N,/DIO0*%
X135890000Y-95250000D02*
X136000000Y-95360000D01*
X111760000Y-106680000D02*
X112910000Y-107830000D01*
X137000000Y-75000000D02*
X138000000Y-76000000D01*
X111183314Y-80341000D02*
X129159000Y-80341000D01*
X136000000Y-95360000D02*
X136000000Y-102500000D01*
X136000000Y-102500000D02*
X134000000Y-104500000D01*
X134000000Y-104500000D02*
X113940000Y-104500000D01*
X129159000Y-80341000D02*
X134500000Y-75000000D01*
X102940000Y-84070000D02*
X107454314Y-84070000D01*
X138000000Y-76000000D02*
X138000000Y-93140000D01*
X138000000Y-93140000D02*
X135890000Y-95250000D01*
X107454314Y-84070000D02*
X111183314Y-80341000D01*
X112910000Y-115182000D02*
X111760000Y-116332000D01*
X134500000Y-75000000D02*
X137000000Y-75000000D01*
X112910000Y-107830000D02*
X112910000Y-115182000D01*
X113940000Y-104500000D02*
X111760000Y-106680000D01*
%TO.N,/DIO2*%
X135890000Y-90170000D02*
X134000000Y-92060000D01*
X102940000Y-89150000D02*
X109850000Y-89150000D01*
X107830000Y-107830000D02*
X107830000Y-115182000D01*
X109850000Y-89150000D02*
X116119000Y-82881000D01*
X133000000Y-103500000D02*
X109860000Y-103500000D01*
X109860000Y-103500000D02*
X106680000Y-106680000D01*
X135434365Y-81450000D02*
X136345635Y-81450000D01*
X106680000Y-106680000D02*
X107830000Y-107830000D01*
X134003365Y-82881000D02*
X135434365Y-81450000D01*
X134000000Y-92060000D02*
X134000000Y-102500000D01*
X137500000Y-82604365D02*
X137500000Y-88560000D01*
X116119000Y-82881000D02*
X134003365Y-82881000D01*
X137500000Y-88560000D02*
X135890000Y-90170000D01*
X107830000Y-115182000D02*
X106680000Y-116332000D01*
X134000000Y-102500000D02*
X133000000Y-103500000D01*
X136345635Y-81450000D02*
X137500000Y-82604365D01*
%TO.N,/DIO13*%
X99060000Y-114705654D02*
X97910000Y-115855654D01*
X99060000Y-109220000D02*
X99060000Y-114705654D01*
X97910000Y-117722000D02*
X99060000Y-118872000D01*
X97910000Y-115855654D02*
X97910000Y-117722000D01*
%TO.N,/DIO7*%
X99660000Y-101000000D02*
X93980000Y-106680000D01*
X95130000Y-107830000D02*
X95130000Y-113404000D01*
X95130000Y-113404000D02*
X93980000Y-114554000D01*
X130100000Y-99500000D02*
X128600000Y-101000000D01*
X93980000Y-114554000D02*
X93980000Y-116332000D01*
X93980000Y-106680000D02*
X95130000Y-107830000D01*
X128600000Y-101000000D02*
X99660000Y-101000000D01*
%TO.N,/DIO8*%
X110610000Y-115855654D02*
X110610000Y-117722000D01*
X110610000Y-117722000D02*
X111760000Y-118872000D01*
X111760000Y-109220000D02*
X111760000Y-114705654D01*
X111760000Y-114705654D02*
X110610000Y-115855654D01*
%TO.N,/DIO12*%
X127770000Y-71370000D02*
X135890000Y-63250000D01*
X100450000Y-117722000D02*
X101600000Y-118872000D01*
X100450000Y-115855654D02*
X100450000Y-117722000D01*
X101600000Y-109220000D02*
X101600000Y-114705654D01*
X101600000Y-114705654D02*
X100450000Y-115855654D01*
X123260000Y-71370000D02*
X127770000Y-71370000D01*
%TO.N,/DIO5*%
X134370000Y-84070000D02*
X135890000Y-82550000D01*
X132500000Y-85940000D02*
X132500000Y-100750000D01*
X100210000Y-107830000D02*
X100210000Y-115182000D01*
X135890000Y-82550000D02*
X132500000Y-85940000D01*
X103740000Y-102000000D02*
X99060000Y-106680000D01*
X131250000Y-102000000D02*
X103740000Y-102000000D01*
X100210000Y-115182000D02*
X99060000Y-116332000D01*
X132500000Y-100750000D02*
X131250000Y-102000000D01*
X123260000Y-84070000D02*
X134370000Y-84070000D01*
X99060000Y-106680000D02*
X100210000Y-107830000D01*
%TO.N,/DIO11*%
X104140000Y-114705654D02*
X102990000Y-115855654D01*
X102990000Y-117722000D02*
X104140000Y-118872000D01*
X123260000Y-73910000D02*
X127770000Y-73910000D01*
X104140000Y-109220000D02*
X104140000Y-114705654D01*
X127770000Y-73910000D02*
X135890000Y-65790000D01*
X102990000Y-115855654D02*
X102990000Y-117722000D01*
%TO.N,GND*%
X144660000Y-73540000D02*
X144660000Y-86480000D01*
X116840000Y-116332000D02*
X116840000Y-118872000D01*
X124460000Y-109220000D02*
X124460000Y-116332000D01*
X142360000Y-61080000D02*
X140970000Y-59690000D01*
X100830000Y-58670000D02*
X93000000Y-66500000D01*
X102940000Y-58670000D02*
X100830000Y-58670000D01*
X123310000Y-105530000D02*
X124460000Y-106680000D01*
X124460000Y-106680000D02*
X124460000Y-109220000D01*
X120540000Y-98000000D02*
X119390000Y-99150000D01*
X144660000Y-97340000D02*
X136500000Y-105500000D01*
X144660000Y-88780000D02*
X144660000Y-97340000D01*
X136500000Y-105500000D02*
X125640000Y-105500000D01*
X119390000Y-99150000D02*
X108108974Y-99150000D01*
X116840000Y-106680000D02*
X117990000Y-105530000D01*
X125640000Y-105500000D02*
X124460000Y-106680000D01*
X116840000Y-109220000D02*
X116840000Y-116332000D01*
X142360000Y-71240000D02*
X142360000Y-61080000D01*
X116840000Y-106680000D02*
X116840000Y-118872000D01*
X143510000Y-72390000D02*
X144660000Y-73540000D01*
X100000000Y-79660000D02*
X97500000Y-77160000D01*
X100000000Y-91041026D02*
X100000000Y-79660000D01*
X143510000Y-72390000D02*
X142360000Y-71240000D01*
X117990000Y-105530000D02*
X123310000Y-105530000D01*
X144660000Y-86480000D02*
X143510000Y-87630000D01*
X143510000Y-87630000D02*
X144660000Y-88780000D01*
X108108974Y-99150000D02*
X100000000Y-91041026D01*
X116840000Y-106680000D02*
X116840000Y-109220000D01*
X93000000Y-66500000D02*
X93000000Y-75000000D01*
X124460000Y-116332000D02*
X124460000Y-118872000D01*
%TO.N,/DIO3*%
X105290000Y-115182000D02*
X104140000Y-116332000D01*
X104140000Y-106680000D02*
X105290000Y-107830000D01*
X135890000Y-87630000D02*
X133500000Y-90020000D01*
X107820000Y-103000000D02*
X104140000Y-106680000D01*
X133500000Y-90020000D02*
X133500000Y-102000000D01*
X133500000Y-102000000D02*
X132500000Y-103000000D01*
X105290000Y-107830000D02*
X105290000Y-115182000D01*
X132500000Y-103000000D02*
X107820000Y-103000000D01*
%TO.N,AREF*%
X131350000Y-54350000D02*
X104720000Y-54350000D01*
X132500000Y-55500000D02*
X131350000Y-54350000D01*
X104720000Y-54350000D02*
X102940000Y-56130000D01*
%TO.N,/DIO9*%
X109220000Y-114705654D02*
X108070000Y-115855654D01*
X109220000Y-109220000D02*
X109220000Y-114705654D01*
X123260000Y-78990000D02*
X127770000Y-78990000D01*
X127770000Y-78990000D02*
X135890000Y-70870000D01*
X108070000Y-115855654D02*
X108070000Y-117722000D01*
X108070000Y-117722000D02*
X109220000Y-118872000D01*
%TO.N,/DIO4*%
X102750000Y-115182000D02*
X101600000Y-116332000D01*
X101600000Y-106680000D02*
X102750000Y-107830000D01*
X102750000Y-107830000D02*
X102750000Y-115182000D01*
X105780000Y-102500000D02*
X101600000Y-106680000D01*
X133000000Y-101434314D02*
X131934314Y-102500000D01*
X135890000Y-85090000D02*
X133000000Y-87980000D01*
X133000000Y-87980000D02*
X133000000Y-101434314D01*
X131934314Y-102500000D02*
X105780000Y-102500000D01*
%TO.N,/DIO6*%
X134370000Y-81530000D02*
X135890000Y-80010000D01*
X96520000Y-106680000D02*
X97670000Y-107830000D01*
X131000000Y-99500000D02*
X129000000Y-101500000D01*
X123260000Y-81530000D02*
X134370000Y-81530000D01*
X129000000Y-101500000D02*
X101700000Y-101500000D01*
X101700000Y-101500000D02*
X96520000Y-106680000D01*
X97670000Y-115182000D02*
X96520000Y-116332000D01*
X97670000Y-107830000D02*
X97670000Y-115182000D01*
%TO.N,/DIO1*%
X135890000Y-92710000D02*
X134500000Y-94100000D01*
X110370000Y-107830000D02*
X110370000Y-115182000D01*
X134500000Y-103000000D02*
X133500000Y-104000000D01*
X110370000Y-115182000D02*
X109220000Y-116332000D01*
X134500000Y-94100000D02*
X134500000Y-103000000D01*
X109220000Y-106680000D02*
X110370000Y-107830000D01*
X133500000Y-104000000D02*
X111900000Y-104000000D01*
X111900000Y-104000000D02*
X109220000Y-106680000D01*
%TO.N,Net-(J1-Pin_2)*%
X97500000Y-69540000D02*
X101351000Y-73391000D01*
X101351000Y-77401000D02*
X102940000Y-78990000D01*
X101351000Y-73391000D02*
X101351000Y-77401000D01*
%TO.N,Net-(J1-Pin_3)*%
X100951000Y-79541000D02*
X102940000Y-81530000D01*
X97500000Y-72080000D02*
X100951000Y-75531000D01*
X100951000Y-75531000D02*
X100951000Y-79541000D01*
%TO.N,/SCL*%
X123260000Y-89150000D02*
X122350000Y-89150000D01*
X122350000Y-89150000D02*
X118000000Y-93500000D01*
X118000000Y-93500000D02*
X118000000Y-98000000D01*
%TD*%
M02*
